<svg width="199" height="40" viewBox="0 0 199 40" fill="none" xmlns="http://www.w3.org/2000/svg">
<g clip-path="url(#clip0_1276_1257)">
<path d="M71.6807 21.0497H57.49C57.6762 22.6632 58.1604 23.9015 59.017 24.727C59.8737 25.5525 60.9911 25.9653 62.4064 25.9653C64.5295 25.9653 65.9448 25.0647 66.727 23.2261H71.1593C70.6751 25.1773 69.6322 26.7157 68.0678 27.879C66.5035 29.0422 64.604 29.6051 62.3319 29.6051C59.5012 29.6051 57.2292 28.7045 55.5159 26.8658C53.8026 25.0272 52.9087 22.6257 52.9087 19.6238C52.9087 16.6219 53.7653 14.1829 55.4787 12.3818C57.2292 10.5431 59.5012 9.64258 62.2575 9.64258C65.1254 9.64258 67.3974 10.5807 69.0735 12.4944C70.7495 14.4081 71.6062 16.8846 71.6062 19.9615V21.0497H71.6807ZM57.5272 17.8227H67.0622C66.876 16.4343 66.3545 15.3086 65.5351 14.4831C64.7157 13.6576 63.6356 13.2448 62.2947 13.2448C59.5385 13.2448 57.9742 14.7833 57.5272 17.8227Z" fill="black"/>
<path d="M79.1673 26.0408C76.8208 23.5643 75.6289 20.1872 75.6289 16.0221C75.6289 11.8195 76.7835 8.44235 79.13 5.9658C81.4393 3.48925 84.4935 2.25098 88.3298 2.25098C91.384 2.25098 93.9912 3.07649 96.1515 4.72752C98.3117 6.37856 99.6526 8.78006 100.174 11.8945H95.1458C94.6989 10.1684 93.8795 8.8551 92.6876 7.95454C91.4957 7.05398 90.0431 6.6037 88.2926 6.6037C85.9833 6.6037 84.121 7.42921 82.8174 9.11777C81.4765 10.7688 80.8061 13.0953 80.8061 16.0221C80.8061 18.9864 81.4765 21.2754 82.7801 22.9264C84.0838 24.5774 85.9461 25.4029 88.2926 25.4029C90.1176 25.4029 91.6447 24.8776 92.9483 23.7894C94.2519 22.7013 95.0341 21.2003 95.2948 19.2866H100.249C99.9133 22.6262 98.647 25.2153 96.3377 27.054C94.1029 28.8926 91.384 29.7932 88.2553 29.7932C84.5307 29.7557 81.5138 28.5174 79.1673 26.0408Z" fill="black"/>
<path d="M104.941 29.1928V10.0934H109.56V29.1928H104.941ZM104.979 7.57928V3.22656H109.523V7.57928H104.979Z" fill="black"/>
<path d="M125.054 13.6207H121.292V23.9397C121.292 24.54 121.441 24.9903 121.777 25.253C122.112 25.5156 122.67 25.6282 123.453 25.6282H125.017V29.1929C124.011 29.3055 123.192 29.343 122.596 29.343C120.547 29.343 119.02 28.9678 118.089 28.1798C117.158 27.3918 116.674 26.1535 116.674 24.465V13.6207H113.731V10.056H116.674V4.54004H121.255V10.0935H125.017V13.6207H125.054Z" fill="black"/>
<path d="M129.598 29.1928V10.0934H134.217V29.1928H129.598ZM129.635 7.57928V3.22656H134.179V7.57928H129.635Z" fill="black"/>
<path d="M154.963 25.5534V29.1932H138.873V26.1163L146.359 16.6228C146.694 16.2101 147.141 15.6847 147.663 15.0468C148.184 14.4089 148.557 13.9587 148.743 13.696C148.147 13.7335 146.843 13.7335 144.832 13.7335H139.022V10.0938H154.479V13.1331L146.992 22.6266C146.657 23.0393 146.21 23.5647 145.689 24.2026C145.167 24.8405 144.795 25.2907 144.608 25.5534C145.204 25.5159 146.508 25.5159 148.519 25.5159H154.963V25.5534Z" fill="black"/>
<path d="M176.528 21.0497H162.338C162.524 22.6632 163.008 23.9015 163.865 24.727C164.721 25.5525 165.839 25.9653 167.254 25.9653C169.377 25.9653 170.792 25.0647 171.575 23.2261H176.007C175.523 25.1773 174.48 26.7157 172.916 27.879C171.351 29.0422 169.452 29.6051 167.18 29.6051C164.349 29.6051 162.077 28.7045 160.364 26.8658C158.65 25.0272 157.756 22.6257 157.756 19.6238C157.756 16.6219 158.613 14.1829 160.326 12.3818C162.077 10.5431 164.349 9.64258 167.105 9.64258C169.973 9.64258 172.245 10.5807 173.921 12.4944C175.597 14.4081 176.454 16.8846 176.454 19.9615V21.0497H176.528ZM162.375 17.8227H171.873C171.686 16.4343 171.165 15.3086 170.346 14.4831C169.526 13.6576 168.446 13.2448 167.105 13.2448C164.386 13.2448 162.822 14.7833 162.375 17.8227Z" fill="black"/>
<path d="M196.604 11.4437C197.796 12.6445 198.392 14.333 198.392 16.5469V29.1923H193.773V17.2974C193.773 14.8959 192.581 13.6576 190.197 13.6576C189.006 13.6576 188.037 14.0703 187.218 14.9334C186.398 15.7964 185.989 16.9597 185.989 18.4606V29.1548H181.37V10.0929H185.84V12.8321C187.292 10.6932 189.266 9.64258 191.762 9.64258C193.773 9.64258 195.412 10.243 196.604 11.4437Z" fill="black"/>
<mask id="mask0_1276_1257" style="mask-type:alpha" maskUnits="userSpaceOnUse" x="19" y="35" width="6" height="5">
<path fill-rule="evenodd" clip-rule="evenodd" d="M24.0228 39.9931H19.814V35.7529H24.0228V39.9931Z" fill="white"/>
</mask>
<g mask="url(#mask0_1276_1257)">
<path fill-rule="evenodd" clip-rule="evenodd" d="M24.0261 37.8918C24.0261 39.055 23.0949 40.0306 21.9403 40.0306C20.7856 40.0306 19.8545 39.0925 19.8545 37.8918C19.8545 36.7285 20.7856 35.7529 21.9403 35.7529C23.0577 35.7529 24.0261 36.691 24.0261 37.8918Z" fill="#E8292B"/>
</g>
<mask id="mask1_1276_1257" style="mask-type:alpha" maskUnits="userSpaceOnUse" x="0" y="10" width="5" height="5">
<path fill-rule="evenodd" clip-rule="evenodd" d="M0.391602 14.4027V10.125H4.56316V14.4027H0.391602Z" fill="white"/>
</mask>
<g mask="url(#mask1_1276_1257)">
<path fill-rule="evenodd" clip-rule="evenodd" d="M4.56316 12.2638C4.56316 13.4271 3.63201 14.4027 2.47738 14.4027C1.32275 14.4027 0.391602 13.4271 0.391602 12.2638C0.391602 11.1006 1.32275 10.125 2.47738 10.125C3.63201 10.125 4.56316 11.1006 4.56316 12.2638Z" fill="#221E1F"/>
</g>
<path fill-rule="evenodd" clip-rule="evenodd" d="M36.818 7.95524C36.818 9.11847 35.8869 10.0941 34.7323 10.0941C33.5776 10.0941 32.6465 9.15599 32.6465 7.95524C32.6465 6.79202 33.5776 5.81641 34.7323 5.81641C35.8869 5.85393 36.818 6.79202 36.818 7.95524Z" fill="#14B04C"/>
<path d="M17.8602 11.219C15.4765 12.2697 13.1672 13.7706 11.1932 15.6843C9.21914 17.598 7.50582 19.8494 6.35119 22.3635C5.7925 23.6017 5.34555 24.9151 5.19656 26.2659C5.04758 27.5792 5.12207 28.9301 5.71801 30.0933L5.94149 30.5436L6.23945 30.9563L6.38844 31.144L6.57467 31.3316L6.90988 31.7068C7.02162 31.8194 7.17061 31.9319 7.28234 32.007C7.43133 32.1196 7.54307 32.2321 7.69205 32.3072L8.139 32.5698L8.36248 32.7199L8.58596 32.8325C9.85232 33.4329 11.3049 33.6956 12.7948 33.8081C12.9065 33.8081 12.981 33.9207 12.981 33.9957C12.981 34.1083 12.9065 34.1458 12.7948 34.1834C11.3049 34.2959 9.74058 34.2209 8.25074 33.7706L7.95277 33.6956L7.69205 33.583L7.09611 33.3203C6.90988 33.2453 6.72365 33.1327 6.57467 33.0201C6.38844 32.9076 6.20221 32.8325 6.05322 32.7199L5.56902 32.3447L5.3083 32.1571L5.08483 31.9319L4.63787 31.4817L4.26541 30.9563L4.11643 30.6937C4.07918 30.6186 4.00469 30.5061 3.96744 30.431L3.66948 29.8682C3.59498 29.6805 3.52049 29.4929 3.446 29.2678C3.37151 29.0802 3.29702 28.855 3.25977 28.6674C3.14803 28.2171 3.03629 27.8044 2.99905 27.3916C2.9618 27.1665 2.92455 26.9789 2.92455 26.7537L2.88731 26.1158C2.85006 24.4648 3.11079 22.8137 3.55774 21.2753C4.45164 18.1608 6.05322 15.3091 8.02726 12.7575C10.0013 10.2059 12.4223 7.95446 15.2902 6.19085C16.5939 5.36534 18.3444 5.7781 19.1638 7.09142C19.9832 8.40474 19.5735 10.1683 18.2699 10.9939C18.1209 11.1064 17.972 11.144 17.8602 11.219Z" fill="#221E1F"/>
<path d="M27.9535 21.9137C28.2887 19.3246 28.2142 16.5478 27.6183 13.8462C27.0223 11.1445 26.0167 8.51782 24.4523 6.22889C23.6702 5.10319 22.7763 4.05253 21.7334 3.22702C20.6905 2.4015 19.4986 1.80113 18.195 1.68856L17.7108 1.65103L17.2266 1.68856H16.9659L16.7797 1.7636L16.2955 1.87617C16.1465 1.9137 15.9975 1.98874 15.8113 2.06379C15.6623 2.13884 15.4761 2.17636 15.3271 2.25141L14.8801 2.51407L14.6566 2.62664L14.4332 2.77674C13.2785 3.56473 12.2729 4.69043 11.4162 5.89118C11.3417 5.96623 11.23 6.00375 11.1555 5.92871C11.081 5.89118 11.0438 5.77861 11.081 5.70357C11.7887 4.35272 12.6081 3.07692 13.7627 1.98874L13.9862 1.80113L14.2097 1.61351L14.6939 1.23827C14.8429 1.1257 15.0291 1.01313 15.2153 0.938086C15.4016 0.825516 15.5878 0.750469 15.774 0.637899L16.37 0.375235L16.6679 0.262664L16.9659 0.187617L17.5991 0.0375235L18.2323 0L18.5675 0C18.6792 0 18.7909 0 18.8654 0L19.4986 0.0375235C19.7221 0.0750469 19.9083 0.11257 20.1318 0.150094C20.3553 0.187617 20.5415 0.225141 20.7277 0.300188C21.1375 0.412758 21.5472 0.525328 21.9196 0.712946C22.1058 0.787993 22.2921 0.863039 22.4783 0.97561L23.037 1.2758C24.4896 2.10131 25.7187 3.18949 26.7989 4.35272C28.9591 6.75422 30.5607 9.56848 31.7153 12.6079C32.87 15.6473 33.5031 18.8743 33.5404 22.2514C33.5404 23.8274 32.3113 25.1032 30.7842 25.1032C29.2198 25.1032 27.9535 23.8649 27.9535 22.3265C27.9535 22.2139 27.9535 22.0638 27.9535 21.9137Z" fill="#14B04C"/>
<path d="M13.6512 25.2537C15.6625 26.9047 18.0463 28.2555 20.6535 29.1561C23.2235 30.0567 26.0169 30.5445 28.7359 30.4319C30.114 30.3569 31.4549 30.1317 32.684 29.6814C33.9131 29.1936 35.0677 28.5182 35.8126 27.4676L36.1106 27.0548L36.3341 26.6045L36.4458 26.3794L36.5203 26.1542L36.6693 25.6664C36.7065 25.5163 36.7438 25.3287 36.781 25.1786C36.8183 25.0285 36.8555 24.8409 36.8555 24.6908L36.8928 24.1655V23.9028V23.6402C36.8183 22.2143 36.4086 20.7884 35.8499 19.4375C35.8126 19.325 35.8499 19.2499 35.9616 19.1749C36.0361 19.1374 36.1479 19.1749 36.1851 19.2499C36.9673 20.5257 37.6005 21.9516 37.9357 23.5276L38.0102 23.8278L38.0474 24.128L38.0847 24.7283C38.1219 24.916 38.0847 25.1411 38.0847 25.3287C38.0847 25.5163 38.0847 25.7415 38.0474 25.9291L37.9357 26.5295L37.8612 26.8297L37.7494 27.1298L37.5632 27.7677L37.2652 28.3306L37.1163 28.6308C37.079 28.7058 37.0045 28.8184 36.93 28.8934L36.5576 29.4188C36.4086 29.5689 36.2968 29.719 36.1479 29.9066C35.9989 30.0567 35.8499 30.2443 35.7009 30.3569C35.4029 30.6195 35.0677 30.9197 34.7325 31.1449C34.5463 31.2574 34.3973 31.4075 34.2111 31.4826L33.6896 31.7827C32.237 32.5707 30.6727 33.0961 29.1084 33.3963C25.9424 33.9966 22.702 33.8841 19.5734 33.3212C16.4074 32.7584 13.316 31.5951 10.4481 29.8691C9.10722 29.0811 8.69751 27.355 9.47968 26.0041C10.2618 24.6533 11.9752 24.2405 13.316 25.0285C13.4278 25.0661 13.5395 25.1786 13.6512 25.2537Z" fill="#E8292B"/>
</g>
<defs>
<clipPath id="clip0_1276_1257">
<rect width="198" height="40" fill="white" transform="translate(0.391602)"/>
</clipPath>
</defs>
</svg>
