<svg width="54" height="22" viewBox="0 0 54 22" fill="none" xmlns="http://www.w3.org/2000/svg">
<path d="M0.648734 4.5C0.635098 4.5 0.622825 4.49591 0.611916 4.48773C0.603734 4.47682 0.599643 4.46455 0.599643 4.45091V1.68545C0.599643 1.67182 0.603734 1.66091 0.611916 1.65273C0.622825 1.64182 0.635098 1.63636 0.648734 1.63636H1.12737C1.14101 1.63636 1.15192 1.64182 1.1601 1.65273C1.17101 1.66091 1.17646 1.67182 1.17646 1.68545V2.83091C1.17646 2.83909 1.17919 2.84455 1.18464 2.84727C1.1901 2.84727 1.19555 2.84455 1.20101 2.83909L2.14601 1.665C2.16237 1.64591 2.18282 1.63636 2.20737 1.63636H2.74737C2.76919 1.63636 2.78282 1.64318 2.78828 1.65682C2.79373 1.66773 2.79101 1.68136 2.7801 1.69773L1.86782 2.86364C1.85964 2.87455 1.85828 2.88409 1.86373 2.89227L2.82919 4.44273C2.83464 4.45909 2.83737 4.46864 2.83737 4.47136C2.83737 4.49045 2.82373 4.5 2.79646 4.5H2.25646C2.22919 4.5 2.2101 4.48909 2.19919 4.46727L1.47101 3.28909C1.46828 3.28364 1.46419 3.28091 1.45873 3.28091C1.45328 3.28091 1.44782 3.28364 1.44237 3.28909L1.18464 3.61227C1.17919 3.62318 1.17646 3.63136 1.17646 3.63682V4.45091C1.17646 4.46455 1.17101 4.47682 1.1601 4.48773C1.15192 4.49591 1.14101 4.5 1.12737 4.5H0.648734ZM5.14864 2.08227C5.14864 2.09591 5.14318 2.10818 5.13227 2.11909C5.12409 2.12727 5.11318 2.13136 5.09955 2.13136H3.75773C3.74409 2.13136 3.73727 2.13818 3.73727 2.15182V2.78591C3.73727 2.79955 3.74409 2.80636 3.75773 2.80636H4.63727C4.65091 2.80636 4.66182 2.81182 4.67 2.82273C4.68091 2.83091 4.68636 2.84182 4.68636 2.85545V3.25227C4.68636 3.26591 4.68091 3.27818 4.67 3.28909C4.66182 3.29727 4.65091 3.30136 4.63727 3.30136H3.75773C3.74409 3.30136 3.73727 3.30818 3.73727 3.32182V3.98455C3.73727 3.99818 3.74409 4.005 3.75773 4.005H5.09955C5.11318 4.005 5.12409 4.01045 5.13227 4.02136C5.14318 4.02955 5.14864 4.04045 5.14864 4.05409V4.45091C5.14864 4.46455 5.14318 4.47682 5.13227 4.48773C5.12409 4.49591 5.11318 4.5 5.09955 4.5H3.20955C3.19591 4.5 3.18364 4.49591 3.17273 4.48773C3.16455 4.47682 3.16046 4.46455 3.16046 4.45091V1.68545C3.16046 1.67182 3.16455 1.66091 3.17273 1.65273C3.18364 1.64182 3.19591 1.63636 3.20955 1.63636H5.09955C5.11318 1.63636 5.12409 1.64182 5.13227 1.65273C5.14318 1.66091 5.14864 1.67182 5.14864 1.68545V2.08227ZM7.19403 1.68545C7.19403 1.67182 7.19812 1.66091 7.2063 1.65273C7.21721 1.64182 7.22948 1.63636 7.24312 1.63636H7.72176C7.73539 1.63636 7.7463 1.64182 7.75448 1.65273C7.76539 1.66091 7.77085 1.67182 7.77085 1.68545V4.45091C7.77085 4.46455 7.76539 4.47682 7.75448 4.48773C7.7463 4.49591 7.73539 4.5 7.72176 4.5H7.25948C7.23221 4.5 7.21312 4.48909 7.20221 4.46727L6.14266 2.71636C6.13721 2.70818 6.13176 2.70545 6.1263 2.70818C6.12085 2.70818 6.11812 2.71364 6.11812 2.72455L6.1263 4.45091C6.1263 4.46455 6.12085 4.47682 6.10994 4.48773C6.10176 4.49591 6.09085 4.5 6.07721 4.5H5.59857C5.58494 4.5 5.57266 4.49591 5.56176 4.48773C5.55357 4.47682 5.54948 4.46455 5.54948 4.45091V1.68545C5.54948 1.67182 5.55357 1.66091 5.56176 1.65273C5.57266 1.64182 5.58494 1.63636 5.59857 1.63636H6.06085C6.08812 1.63636 6.10721 1.64727 6.11812 1.66909L7.17357 3.41182C7.17903 3.42 7.18448 3.42409 7.18994 3.42409C7.19539 3.42136 7.19812 3.41455 7.19812 3.40364L7.19403 1.68545ZM9.04328 4.49591C9.02964 4.49591 9.01737 4.49182 9.00646 4.48364C8.99828 4.47273 8.99419 4.46045 8.99419 4.44682V3.41182C8.99419 3.40091 8.99282 3.39273 8.9901 3.38727L8.14737 1.69364C8.14191 1.68273 8.13919 1.67455 8.13919 1.66909C8.13919 1.64727 8.15419 1.63636 8.18419 1.63636H8.69964C8.72691 1.63636 8.74601 1.64864 8.75691 1.67318L9.26828 2.76136C9.27646 2.77773 9.28464 2.77773 9.29282 2.76136L9.80419 1.67318C9.8151 1.64864 9.83419 1.63636 9.86146 1.63636H10.3851C10.4042 1.63636 10.4165 1.64182 10.4219 1.65273C10.4301 1.66091 10.4301 1.67455 10.4219 1.69364L9.57101 3.38727C9.56828 3.39273 9.56691 3.40091 9.56691 3.41182V4.44682C9.56691 4.46045 9.56146 4.47273 9.55055 4.48364C9.54237 4.49182 9.53146 4.49591 9.51782 4.49591H9.04328ZM12.104 4.5C12.0768 4.5 12.059 4.48636 12.0509 4.45909L11.9281 4.05818C11.9227 4.04727 11.9159 4.04182 11.9077 4.04182H10.9013C10.8931 4.04182 10.8863 4.04727 10.8809 4.05818L10.7622 4.45909C10.754 4.48636 10.7363 4.5 10.709 4.5H10.1895C10.1731 4.5 10.1609 4.49591 10.1527 4.48773C10.1445 4.47682 10.1431 4.46182 10.1486 4.44273L11.0322 1.67727C11.0404 1.65 11.0581 1.63636 11.0854 1.63636H11.7277C11.755 1.63636 11.7727 1.65 11.7809 1.67727L12.6645 4.44273C12.6672 4.44818 12.6686 4.455 12.6686 4.46318C12.6686 4.48773 12.6536 4.5 12.6236 4.5H12.104ZM11.0281 3.57136C11.0254 3.58773 11.0309 3.59591 11.0445 3.59591H11.7645C11.7809 3.59591 11.7863 3.58773 11.7809 3.57136L11.4127 2.35636C11.41 2.34545 11.4059 2.34136 11.4004 2.34409C11.395 2.34409 11.3909 2.34818 11.3881 2.35636L11.0281 3.57136ZM15.4181 4.5C15.3908 4.5 15.3717 4.48773 15.3608 4.46318L14.8494 3.33C14.844 3.31909 14.8358 3.31364 14.8249 3.31364H14.4444C14.4308 3.31364 14.424 3.32045 14.424 3.33409V4.45091C14.424 4.46455 14.4185 4.47682 14.4076 4.48773C14.3994 4.49591 14.3885 4.5 14.3749 4.5H13.8962C13.8826 4.5 13.8703 4.49591 13.8594 4.48773C13.8512 4.47682 13.8472 4.46455 13.8472 4.45091V1.68545C13.8472 1.67182 13.8512 1.66091 13.8594 1.65273C13.8703 1.64182 13.8826 1.63636 13.8962 1.63636H15.0662C15.2408 1.63636 15.3935 1.67182 15.5244 1.74273C15.6581 1.81364 15.7603 1.91455 15.8312 2.04545C15.9049 2.17636 15.9417 2.32773 15.9417 2.49955C15.9417 2.685 15.8953 2.84455 15.8026 2.97818C15.7099 3.10909 15.5803 3.20182 15.414 3.25636C15.4003 3.26182 15.3962 3.27136 15.4017 3.285L15.9581 4.44273C15.9635 4.45364 15.9662 4.46182 15.9662 4.46727C15.9662 4.48909 15.9512 4.5 15.9212 4.5H15.4181ZM14.4444 2.13136C14.4308 2.13136 14.424 2.13818 14.424 2.15182V2.85136C14.424 2.865 14.4308 2.87182 14.4444 2.87182H14.9803C15.0949 2.87182 15.1876 2.83773 15.2585 2.76955C15.3322 2.70136 15.369 2.61273 15.369 2.50364C15.369 2.39455 15.3322 2.30591 15.2585 2.23773C15.1876 2.16682 15.0949 2.13136 14.9803 2.13136H14.4444ZM18.3482 2.08227C18.3482 2.09591 18.3428 2.10818 18.3318 2.11909C18.3237 2.12727 18.3128 2.13136 18.2991 2.13136H16.9573C16.9437 2.13136 16.9368 2.13818 16.9368 2.15182V2.78591C16.9368 2.79955 16.9437 2.80636 16.9573 2.80636H17.8368C17.8505 2.80636 17.8614 2.81182 17.8696 2.82273C17.8805 2.83091 17.8859 2.84182 17.8859 2.85545V3.25227C17.8859 3.26591 17.8805 3.27818 17.8696 3.28909C17.8614 3.29727 17.8505 3.30136 17.8368 3.30136H16.9573C16.9437 3.30136 16.9368 3.30818 16.9368 3.32182V3.98455C16.9368 3.99818 16.9437 4.005 16.9573 4.005H18.2991C18.3128 4.005 18.3237 4.01045 18.3318 4.02136C18.3428 4.02955 18.3482 4.04045 18.3482 4.05409V4.45091C18.3482 4.46455 18.3428 4.47682 18.3318 4.48773C18.3237 4.49591 18.3128 4.5 18.2991 4.5H16.4091C16.3955 4.5 16.3832 4.49591 16.3723 4.48773C16.3641 4.47682 16.36 4.46455 16.36 4.45091V1.68545C16.36 1.67182 16.3641 1.66091 16.3723 1.65273C16.3832 1.64182 16.3955 1.63636 16.4091 1.63636H18.2991C18.3128 1.63636 18.3237 1.64182 18.3318 1.65273C18.3428 1.66091 18.3482 1.67182 18.3482 1.68545V2.08227ZM19.5339 4.5C19.5067 4.5 19.4889 4.48636 19.4808 4.45909L18.638 1.69364L18.6339 1.67727C18.6339 1.65 18.6489 1.63636 18.6789 1.63636H19.1944C19.2244 1.63636 19.2435 1.65 19.2517 1.67727L19.7958 3.67364C19.7985 3.68182 19.8026 3.68591 19.808 3.68591C19.8135 3.68591 19.8176 3.68182 19.8203 3.67364L20.3562 1.67727C20.3644 1.65 20.3835 1.63636 20.4135 1.63636H20.9167C20.933 1.63636 20.9453 1.64182 20.9535 1.65273C20.9617 1.66364 20.963 1.67727 20.9576 1.69364L20.1026 4.45909C20.0944 4.48636 20.0767 4.5 20.0494 4.5H19.5339ZM23.2821 2.08227C23.2821 2.09591 23.2766 2.10818 23.2657 2.11909C23.2575 2.12727 23.2466 2.13136 23.233 2.13136H21.8912C21.8775 2.13136 21.8707 2.13818 21.8707 2.15182V2.78591C21.8707 2.79955 21.8775 2.80636 21.8912 2.80636H22.7707C22.7843 2.80636 22.7953 2.81182 22.8034 2.82273C22.8143 2.83091 22.8198 2.84182 22.8198 2.85545V3.25227C22.8198 3.26591 22.8143 3.27818 22.8034 3.28909C22.7953 3.29727 22.7843 3.30136 22.7707 3.30136H21.8912C21.8775 3.30136 21.8707 3.30818 21.8707 3.32182V3.98455C21.8707 3.99818 21.8775 4.005 21.8912 4.005H23.233C23.2466 4.005 23.2575 4.01045 23.2657 4.02136C23.2766 4.02955 23.2821 4.04045 23.2821 4.05409V4.45091C23.2821 4.46455 23.2766 4.47682 23.2657 4.48773C23.2575 4.49591 23.2466 4.5 23.233 4.5H21.343C21.3293 4.5 21.3171 4.49591 21.3062 4.48773C21.298 4.47682 21.2939 4.46455 21.2939 4.45091V1.68545C21.2939 1.67182 21.298 1.66091 21.3062 1.65273C21.3171 1.64182 21.3293 1.63636 21.343 1.63636H23.233C23.2466 1.63636 23.2575 1.64182 23.2657 1.65273C23.2766 1.66091 23.2821 1.67182 23.2821 1.68545V2.08227ZM25.3275 1.68545C25.3275 1.67182 25.3316 1.66091 25.3397 1.65273C25.3506 1.64182 25.3629 1.63636 25.3766 1.63636H25.8552C25.8688 1.63636 25.8797 1.64182 25.8879 1.65273C25.8988 1.66091 25.9043 1.67182 25.9043 1.68545V4.45091C25.9043 4.46455 25.8988 4.47682 25.8879 4.48773C25.8797 4.49591 25.8688 4.5 25.8552 4.5H25.3929C25.3656 4.5 25.3466 4.48909 25.3356 4.46727L24.2761 2.71636C24.2706 2.70818 24.2652 2.70545 24.2597 2.70818C24.2543 2.70818 24.2516 2.71364 24.2516 2.72455L24.2597 4.45091C24.2597 4.46455 24.2543 4.47682 24.2434 4.48773C24.2352 4.49591 24.2243 4.5 24.2106 4.5H23.732C23.7184 4.5 23.7061 4.49591 23.6952 4.48773C23.687 4.47682 23.6829 4.46455 23.6829 4.45091V1.68545C23.6829 1.67182 23.687 1.66091 23.6952 1.65273C23.7061 1.64182 23.7184 1.63636 23.732 1.63636H24.1943C24.2216 1.63636 24.2406 1.64727 24.2516 1.66909L25.307 3.41182C25.3125 3.42 25.3179 3.42409 25.3234 3.42409C25.3288 3.42136 25.3316 3.41455 25.3316 3.40364L25.3275 1.68545ZM27.4426 4.53273C27.2326 4.53273 27.0472 4.49182 26.8863 4.41C26.7281 4.32818 26.604 4.21364 26.514 4.06636C26.4267 3.91636 26.3831 3.74455 26.3831 3.55091V1.68545C26.3831 1.67182 26.3872 1.66091 26.3953 1.65273C26.4063 1.64182 26.4185 1.63636 26.4322 1.63636H26.9108C26.9244 1.63636 26.9353 1.64182 26.9435 1.65273C26.9544 1.66091 26.9599 1.67182 26.9599 1.68545V3.555C26.9599 3.69955 27.0035 3.81682 27.0908 3.90682C27.1808 3.99409 27.2981 4.03773 27.4426 4.03773C27.5872 4.03773 27.7031 3.99409 27.7903 3.90682C27.8803 3.81682 27.9253 3.69955 27.9253 3.555V1.68545C27.9253 1.67182 27.9294 1.66091 27.9376 1.65273C27.9485 1.64182 27.9608 1.63636 27.9744 1.63636H28.4531C28.4667 1.63636 28.4776 1.64182 28.4858 1.65273C28.4967 1.66091 28.5022 1.67182 28.5022 1.68545V3.55091C28.5022 3.74455 28.4572 3.91636 28.3672 4.06636C28.2799 4.21364 28.1558 4.32818 27.9949 4.41C27.8367 4.49182 27.6526 4.53273 27.4426 4.53273ZM30.9645 2.08227C30.9645 2.09591 30.9591 2.10818 30.9481 2.11909C30.94 2.12727 30.9291 2.13136 30.9154 2.13136H29.5736C29.56 2.13136 29.5531 2.13818 29.5531 2.15182V2.78591C29.5531 2.79955 29.56 2.80636 29.5736 2.80636H30.4531C30.4668 2.80636 30.4777 2.81182 30.4859 2.82273C30.4968 2.83091 30.5022 2.84182 30.5022 2.85545V3.25227C30.5022 3.26591 30.4968 3.27818 30.4859 3.28909C30.4777 3.29727 30.4668 3.30136 30.4531 3.30136H29.5736C29.56 3.30136 29.5531 3.30818 29.5531 3.32182V3.98455C29.5531 3.99818 29.56 4.005 29.5736 4.005H30.9154C30.9291 4.005 30.94 4.01045 30.9481 4.02136C30.9591 4.02955 30.9645 4.04045 30.9645 4.05409V4.45091C30.9645 4.46455 30.9591 4.47682 30.9481 4.48773C30.94 4.49591 30.9291 4.5 30.9154 4.5H29.0254C29.0118 4.5 28.9995 4.49591 28.9886 4.48773C28.9804 4.47682 28.9763 4.46455 28.9763 4.45091V1.68545C28.9763 1.67182 28.9804 1.66091 28.9886 1.65273C28.9995 1.64182 29.0118 1.63636 29.0254 1.63636H30.9154C30.9291 1.63636 30.94 1.64182 30.9481 1.65273C30.9591 1.66091 30.9645 1.67182 30.9645 1.68545V2.08227ZM34.0048 4.5C33.9775 4.5 33.9598 4.48636 33.9516 4.45909L33.8289 4.05818C33.8234 4.04727 33.8166 4.04182 33.8084 4.04182H32.8021C32.7939 4.04182 32.7871 4.04727 32.7816 4.05818L32.663 4.45909C32.6548 4.48636 32.6371 4.5 32.6098 4.5H32.0902C32.0739 4.5 32.0616 4.49591 32.0534 4.48773C32.0452 4.47682 32.0439 4.46182 32.0493 4.44273L32.933 1.67727C32.9412 1.65 32.9589 1.63636 32.9862 1.63636H33.6284C33.6557 1.63636 33.6734 1.65 33.6816 1.67727L34.5652 4.44273C34.568 4.44818 34.5693 4.455 34.5693 4.46318C34.5693 4.48773 34.5543 4.5 34.5243 4.5H34.0048ZM32.9289 3.57136C32.9262 3.58773 32.9316 3.59591 32.9452 3.59591H33.6652C33.6816 3.59591 33.6871 3.58773 33.6816 3.57136L33.3134 2.35636C33.3107 2.34545 33.3066 2.34136 33.3012 2.34409C33.2957 2.34409 33.2916 2.34818 33.2889 2.35636L32.9289 3.57136ZM35.9121 4.53273C35.7021 4.53273 35.5166 4.49182 35.3557 4.41C35.1975 4.32818 35.0734 4.21364 34.9834 4.06636C34.8962 3.91636 34.8525 3.74455 34.8525 3.55091V1.68545C34.8525 1.67182 34.8566 1.66091 34.8648 1.65273C34.8757 1.64182 34.888 1.63636 34.9016 1.63636H35.3803C35.3939 1.63636 35.4048 1.64182 35.413 1.65273C35.4239 1.66091 35.4293 1.67182 35.4293 1.68545V3.555C35.4293 3.69955 35.473 3.81682 35.5603 3.90682C35.6503 3.99409 35.7675 4.03773 35.9121 4.03773C36.0566 4.03773 36.1725 3.99409 36.2598 3.90682C36.3498 3.81682 36.3948 3.69955 36.3948 3.555V1.68545C36.3948 1.67182 36.3989 1.66091 36.4071 1.65273C36.418 1.64182 36.4303 1.63636 36.4439 1.63636H36.9225C36.9362 1.63636 36.9471 1.64182 36.9553 1.65273C36.9662 1.66091 36.9716 1.67182 36.9716 1.68545V3.55091C36.9716 3.74455 36.9266 3.91636 36.8366 4.06636C36.7493 4.21364 36.6253 4.32818 36.4643 4.41C36.3062 4.49182 36.1221 4.53273 35.9121 4.53273ZM39.4217 1.63636C39.4353 1.63636 39.4462 1.64182 39.4544 1.65273C39.4653 1.66091 39.4708 1.67182 39.4708 1.68545V2.08636C39.4708 2.1 39.4653 2.11227 39.4544 2.12318C39.4462 2.13136 39.4353 2.13545 39.4217 2.13545H38.6894C38.6758 2.13545 38.669 2.14227 38.669 2.15591V4.45091C38.669 4.46455 38.6635 4.47682 38.6526 4.48773C38.6444 4.49591 38.6335 4.5 38.6199 4.5H38.1412C38.1276 4.5 38.1153 4.49591 38.1044 4.48773C38.0962 4.47682 38.0921 4.46455 38.0921 4.45091V2.15591C38.0921 2.14227 38.0853 2.13545 38.0717 2.13545H37.3599C37.3462 2.13545 37.334 2.13136 37.3231 2.12318C37.3149 2.11227 37.3108 2.1 37.3108 2.08636V1.68545C37.3108 1.67182 37.3149 1.66091 37.3231 1.65273C37.334 1.64182 37.3462 1.63636 37.3599 1.63636H39.4217ZM41.3606 1.68545C41.3606 1.67182 41.3647 1.66091 41.3729 1.65273C41.3838 1.64182 41.3961 1.63636 41.4097 1.63636H41.8884C41.902 1.63636 41.9129 1.64182 41.9211 1.65273C41.932 1.66091 41.9374 1.67182 41.9374 1.68545V4.45091C41.9374 4.46455 41.932 4.47682 41.9211 4.48773C41.9129 4.49591 41.902 4.5 41.8884 4.5H41.4097C41.3961 4.5 41.3838 4.49591 41.3729 4.48773C41.3647 4.47682 41.3606 4.46455 41.3606 4.45091V3.32182C41.3606 3.30818 41.3538 3.30136 41.3402 3.30136H40.4361C40.4224 3.30136 40.4156 3.30818 40.4156 3.32182V4.45091C40.4156 4.46455 40.4102 4.47682 40.3993 4.48773C40.3911 4.49591 40.3802 4.5 40.3665 4.5H39.8879C39.8743 4.5 39.862 4.49591 39.8511 4.48773C39.8429 4.47682 39.8388 4.46455 39.8388 4.45091V1.68545C39.8388 1.67182 39.8429 1.66091 39.8511 1.65273C39.862 1.64182 39.8743 1.63636 39.8879 1.63636H40.3665C40.3802 1.63636 40.3911 1.64182 40.3993 1.65273C40.4102 1.66091 40.4156 1.67182 40.4156 1.68545V2.78591C40.4156 2.79955 40.4224 2.80636 40.4361 2.80636H41.3402C41.3538 2.80636 41.3606 2.79955 41.3606 2.78591V1.68545ZM43.4262 4.545C43.2135 4.545 43.0253 4.50136 42.8617 4.41409C42.7008 4.32682 42.5753 4.20545 42.4853 4.05C42.3953 3.89182 42.3503 3.71045 42.3503 3.50591V2.63045C42.3503 2.42864 42.3953 2.25 42.4853 2.09455C42.5753 1.93909 42.7008 1.81909 42.8617 1.73455C43.0253 1.64727 43.2135 1.60364 43.4262 1.60364C43.6417 1.60364 43.8299 1.64727 43.9908 1.73455C44.1544 1.81909 44.2812 1.93909 44.3712 2.09455C44.4612 2.25 44.5062 2.42864 44.5062 2.63045V3.50591C44.5062 3.71045 44.4612 3.89182 44.3712 4.05C44.2812 4.20818 44.1544 4.33091 43.9908 4.41818C43.8299 4.50273 43.6417 4.545 43.4262 4.545ZM43.4262 4.05C43.5762 4.05 43.6976 4.00227 43.7903 3.90682C43.8831 3.81136 43.9294 3.68455 43.9294 3.52636V2.62636C43.9294 2.46818 43.8831 2.34136 43.7903 2.24591C43.7003 2.14773 43.579 2.09864 43.4262 2.09864C43.2762 2.09864 43.1549 2.14773 43.0622 2.24591C42.9722 2.34136 42.9272 2.46818 42.9272 2.62636V3.52636C42.9272 3.68455 42.9722 3.81136 43.0622 3.90682C43.1549 4.00227 43.2762 4.05 43.4262 4.05ZM46.5194 4.5C46.4921 4.5 46.473 4.48773 46.4621 4.46318L45.9507 3.33C45.9453 3.31909 45.9371 3.31364 45.9262 3.31364H45.5457C45.5321 3.31364 45.5253 3.32045 45.5253 3.33409V4.45091C45.5253 4.46455 45.5198 4.47682 45.5089 4.48773C45.5007 4.49591 45.4898 4.5 45.4762 4.5H44.9975C44.9839 4.5 44.9716 4.49591 44.9607 4.48773C44.9525 4.47682 44.9484 4.46455 44.9484 4.45091V1.68545C44.9484 1.67182 44.9525 1.66091 44.9607 1.65273C44.9716 1.64182 44.9839 1.63636 44.9975 1.63636H46.1675C46.3421 1.63636 46.4948 1.67182 46.6257 1.74273C46.7594 1.81364 46.8616 1.91455 46.9325 2.04545C47.0062 2.17636 47.043 2.32773 47.043 2.49955C47.043 2.685 46.9966 2.84455 46.9039 2.97818C46.8112 3.10909 46.6816 3.20182 46.5153 3.25636C46.5016 3.26182 46.4975 3.27136 46.503 3.285L47.0594 4.44273C47.0648 4.45364 47.0675 4.46182 47.0675 4.46727C47.0675 4.48909 47.0525 4.5 47.0225 4.5H46.5194ZM45.5457 2.13136C45.5321 2.13136 45.5253 2.13818 45.5253 2.15182V2.85136C45.5253 2.865 45.5321 2.87182 45.5457 2.87182H46.0816C46.1962 2.87182 46.2889 2.83773 46.3598 2.76955C46.4334 2.70136 46.4703 2.61273 46.4703 2.50364C46.4703 2.39455 46.4334 2.30591 46.3598 2.23773C46.2889 2.16682 46.1962 2.13136 46.0816 2.13136H45.5457ZM47.5104 4.5C47.4968 4.5 47.4845 4.49591 47.4736 4.48773C47.4654 4.47682 47.4613 4.46455 47.4613 4.45091V1.68545C47.4613 1.67182 47.4654 1.66091 47.4736 1.65273C47.4845 1.64182 47.4968 1.63636 47.5104 1.63636H47.989C48.0027 1.63636 48.0136 1.64182 48.0218 1.65273C48.0327 1.66091 48.0381 1.67182 48.0381 1.68545V4.45091C48.0381 4.46455 48.0327 4.47682 48.0218 4.48773C48.0136 4.49591 48.0027 4.5 47.989 4.5H47.5104ZM50.5119 1.63636C50.5255 1.63636 50.5364 1.64182 50.5446 1.65273C50.5555 1.66091 50.561 1.67182 50.561 1.68545V2.08636C50.561 2.1 50.5555 2.11227 50.5446 2.12318C50.5364 2.13136 50.5255 2.13545 50.5119 2.13545H49.7796C49.766 2.13545 49.7592 2.14227 49.7592 2.15591V4.45091C49.7592 4.46455 49.7537 4.47682 49.7428 4.48773C49.7346 4.49591 49.7237 4.5 49.7101 4.5H49.2314C49.2178 4.5 49.2055 4.49591 49.1946 4.48773C49.1864 4.47682 49.1823 4.46455 49.1823 4.45091V2.15591C49.1823 2.14227 49.1755 2.13545 49.1619 2.13545H48.4501C48.4364 2.13545 48.4242 2.13136 48.4133 2.12318C48.4051 2.11227 48.401 2.1 48.401 2.08636V1.68545C48.401 1.67182 48.4051 1.66091 48.4133 1.65273C48.4242 1.64182 48.4364 1.63636 48.4501 1.63636H50.5119ZM51.7022 4.49591C51.6885 4.49591 51.6763 4.49182 51.6654 4.48364C51.6572 4.47273 51.6531 4.46045 51.6531 4.44682V3.41182C51.6531 3.40091 51.6517 3.39273 51.649 3.38727L50.8063 1.69364C50.8008 1.68273 50.7981 1.67455 50.7981 1.66909C50.7981 1.64727 50.8131 1.63636 50.8431 1.63636H51.3585C51.3858 1.63636 51.4049 1.64864 51.4158 1.67318L51.9272 2.76136C51.9354 2.77773 51.9435 2.77773 51.9517 2.76136L52.4631 1.67318C52.474 1.64864 52.4931 1.63636 52.5204 1.63636H53.044C53.0631 1.63636 53.0754 1.64182 53.0808 1.65273C53.089 1.66091 53.089 1.67455 53.0808 1.69364L52.2299 3.38727C52.2272 3.39273 52.2258 3.40091 52.2258 3.41182V4.44682C52.2258 4.46045 52.2204 4.47273 52.2095 4.48364C52.2013 4.49182 52.1904 4.49591 52.1767 4.49591H51.7022Z" fill="white"/>
<g clip-path="url(#clip0_1150_30205)">
<path d="M11.5413 8.59921C12.3142 9.11757 12.685 9.8561 12.6482 10.8176C12.6284 11.662 12.3311 12.4312 11.7508 13.1307C11.2157 13.8107 10.4938 14.3737 9.57939 14.8168C8.71309 15.2432 7.78169 15.5832 6.788 15.8368C5.82828 16.0737 4.82609 16.2326 3.77578 16.3134C3.58327 18.8996 4.27688 20.3265 5.86225 20.5997C7.00598 20.7808 8.07328 20.491 9.0698 19.7301C10.2022 18.8968 11.1676 17.679 11.9603 16.0821H12.5548C11.7338 17.8518 10.7429 19.1978 9.58222 20.1231C8.40168 21.04 7.01165 21.497 5.40646 21.497C3.55496 21.497 2.16776 20.8672 1.24485 19.6047C0.384214 18.3841 0.146408 16.8234 0.522935 14.9283C0.882475 13.0861 1.85918 11.4502 3.45305 10.015C4.20044 9.37954 5.04408 8.86675 5.98398 8.47658C6.9437 8.0892 7.84397 7.88297 8.69328 7.86346C9.854 7.83559 10.8024 8.08084 11.5413 8.59921ZM5.48572 11.0071C4.56281 12.4758 4.00227 14.0476 3.79843 15.7142C5.01577 15.6139 6.08024 15.3881 6.99183 15.0342C7.90342 14.6802 8.63099 14.0727 9.17455 13.2115C9.86532 12.0606 10.0861 10.9514 9.83701 9.89233C9.61619 8.96708 9.11793 8.54904 8.34506 8.64101C7.37685 8.72183 6.42279 9.51053 5.48289 11.0099L5.48572 11.0071Z" fill="white"/>
<path d="M14.1147 8.21191H19.1285C21.9822 8.21191 24.4282 9.17619 24.4282 12.4257C24.4282 15.6753 21.9822 16.882 19.1285 16.882H17.6196V21.2575H14.1147V8.21191ZM18.885 14.1508C20.2722 14.1508 21.0055 13.5489 21.0055 12.4257C21.0055 11.3026 20.2722 10.9403 18.885 10.9403H17.6224V14.1508H18.885ZM18.4972 15.9763L20.8611 13.6882L25.1614 21.2547H21.2461L18.4943 15.9763H18.4972Z" fill="#EE1820"/>
<path d="M25.937 8.21191H29.4418V21.2547H25.937V8.21191Z" fill="#EE1820"/>
<path d="M33.8865 11.1019H30.3789V8.21191H40.899V11.1019H37.3914V21.2575H33.8865V11.1019Z" fill="#EE1820"/>
<path d="M40.6128 19.6298L42.6115 17.2609C43.5486 18.0023 44.7319 18.5262 45.7115 18.5262C46.7703 18.5262 47.2204 18.1862 47.2204 17.6037C47.2204 16.9823 46.5466 16.7816 45.4255 16.3385L43.775 15.6557C42.3482 15.0927 41.1054 13.9111 41.1054 12.0243C41.1054 9.7976 43.1437 7.97217 46.0399 7.97217C47.5488 7.97217 49.2191 8.53512 50.4421 9.71678L48.6897 11.885C47.7923 11.2635 47.0194 10.943 46.0399 10.943C45.1849 10.943 44.6527 11.244 44.6527 11.8265C44.6527 12.4479 45.4057 12.6681 46.6089 13.1307L48.2198 13.7522C49.8702 14.3932 50.8102 15.5191 50.8102 17.325C50.8102 19.5323 48.936 21.4998 45.6322 21.4998C43.9619 21.4998 42.0453 20.8979 40.6185 19.6326L40.6128 19.6298Z" fill="#EE1820"/>
</g>
<defs>
<clipPath id="clip0_1150_30205">
<rect width="50.4545" height="13.6364" fill="white" transform="translate(0.350098 7.86377)"/>
</clipPath>
</defs>
</svg>
