<svg width="25" height="24" viewBox="0 0 25 24" fill="none" xmlns="http://www.w3.org/2000/svg">
<g clip-path="url(#clip0_1276_189)">
<path d="M24.6543 12C24.6543 5.37258 19.2817 0 12.6543 0C6.02688 0 0.654297 5.37258 0.654297 12C0.654297 17.9895 5.0425 22.954 10.7793 23.8542V15.4688H7.73242V12H10.7793V9.35625C10.7793 6.34875 12.5709 4.6875 15.3119 4.6875C16.6244 4.6875 17.998 4.92188 17.998 4.92188V7.875H16.4849C14.9943 7.875 14.5293 8.80008 14.5293 9.75V12H17.8574L17.3254 15.4688H14.5293V23.8542C20.2661 22.954 24.6543 17.9895 24.6543 12Z" fill="#98A2B3"/>
</g>
<defs>
<clipPath id="clip0_1276_189">
<rect width="24" height="24" fill="white" transform="translate(0.654297)"/>
</clipPath>
</defs>
</svg>
