<svg width="145" height="44" viewBox="0 0 145 44" fill="none" xmlns="http://www.w3.org/2000/svg">
<g clip-path="url(#clip0_1150_29853)">
<path d="M17.4939 0.5C16.757 0.5 16.0274 0.550819 15.3159 0.641567C17.3233 1.17879 19.4141 1.94834 21.2363 3.08087C27.095 6.69627 26.7102 10.4351 29.3855 11.0776C32.068 11.7201 31.0516 12.6203 30.7903 16.3627C30.7031 17.6586 28.3764 16.4934 27.6068 16.4934C26.8373 16.4934 25.9516 18.0398 27.095 18.8129C28.2457 19.5861 30.9209 18.5588 30.4091 20.6206C29.9009 22.6788 27.8645 25.6517 26.34 23.5826C24.8118 21.5209 23.3997 21.9746 22.26 21.0127C19.8461 18.9436 20.6083 17.6586 19.5883 15.9743C18.9495 14.9326 18.866 14.3409 18.8805 14.0396C18.6264 15.1177 17.8169 19.3647 20.3542 22.1597C23.2836 25.3867 27.2293 27.3215 27.0986 31.8443C27.095 32.1275 27.0841 32.3961 27.0805 32.6429C31.7486 29.503 34.8195 24.1308 34.8195 18.0325C34.8158 8.35514 27.0551 0.5 17.4939 0.5Z" fill="#ED1C24"/>
<path d="M11.9401 11.8219C11.9401 11.8219 8.37919 13.6296 4.93439 19.1798C4.93439 19.1798 3.28278 8.59855 15.3813 2.79431C15.3813 2.79431 12.6407 0.86683 7.38459 3.77439C3.02143 6.9542 0.179199 12.1486 0.179199 18.0182C0.179199 22.2616 1.66747 26.1601 4.1467 29.1911C4.08136 28.0731 4.04143 26.6029 4.16848 25.2381C4.42983 22.5265 5.32279 19.6952 11.9401 11.8219ZM16.5284 19.9493C16.5284 19.9493 15.2579 19.9493 14.6226 24.4649C14.06 28.4215 13.403 31.1911 10.1542 33.9027C11.4828 34.5343 12.9021 34.9989 14.3867 35.2675C15.8532 33.8228 17.8242 31.0786 17.1636 27.2999C16.1472 21.4993 16.5284 19.9493 16.5284 19.9493ZM18.5502 35.5253C20.1256 35.4236 21.6502 35.1151 23.0876 34.6105C21.5631 33.0714 19.494 30.6031 18.9459 28.0731L18.5502 35.5253ZM13.2179 17.3721C14.8695 13.7603 15.3813 13.1178 15.3813 13.1178C15.3813 13.1178 11.6824 14.5335 10.9274 20.0763C10.2304 25.1364 8.57157 28.3634 5.29012 30.4652C6.01974 31.1948 6.81469 31.8591 7.65683 32.4507C9.24674 31.144 11.4864 29.0459 12.1979 27.0422C13.3449 23.8152 11.5626 20.9838 13.2179 17.3757M19.4541 7.82901C19.4541 7.82901 21.4977 7.56765 22.5141 7.56765C23.5305 7.56765 23.9116 8.08673 24.0495 8.86354C24.1693 9.63308 23.9116 11.1831 23.9116 11.1831C23.9116 11.1831 24.0495 9.24831 21.9986 8.73286C20.2563 8.29001 18.4377 8.60218 19.4541 7.83264" fill="black"/>
<path d="M41.4518 15.8037C41.4699 16.5006 41.5897 16.6858 42.0072 16.7729C42.2649 16.8346 42.4972 16.8564 42.7731 16.8818L42.744 17.1105C42.2395 17.1105 41.4518 17.0633 40.6968 17.0633C40.0143 17.0633 39.0379 17.1105 38.8237 17.1105V16.8818C39.1976 16.8346 39.3973 16.8201 39.6114 16.7729C40.0615 16.6858 40.1124 16.3954 40.145 15.8364C40.1922 14.9434 40.1849 13.4261 40.1849 12.1738C40.1849 11.0195 40.1922 9.74535 40.145 8.8778C40.1124 8.28249 40.0035 8.14456 39.6223 8.05744C39.4299 8.00662 39.1032 7.99573 38.9217 7.96306V7.73801C39.3174 7.73801 39.9454 7.78156 40.7948 7.78156C41.4409 7.78156 42.1524 7.73801 42.5335 7.73801V7.96306C42.3048 7.99573 41.9455 8.05744 41.8293 8.08285C41.4808 8.19537 41.4699 8.39139 41.4409 8.99759C41.4155 9.65097 41.4155 11.6148 41.4155 12.1665C41.4155 13.4588 41.4155 14.6893 41.4482 15.8037M44.3521 7.73801C44.9438 7.73801 45.3648 7.78156 45.9529 7.78156C46.835 7.78156 47.2742 7.76704 47.7352 7.73801V7.96306C46.8713 8.08285 46.5809 8.19174 45.844 8.96855C44.8639 9.99218 43.7205 11.1901 42.9038 11.9523V11.9959C43.2305 12.5876 46.1235 15.6367 47.0818 16.3772C47.296 16.5478 47.4448 16.624 47.6227 16.7003C47.8985 16.8201 48.1925 16.8527 48.8205 16.8709L48.7951 17.1105C48.1308 17.1649 46.5809 17.1576 46.2142 17.0342C45.9856 16.9725 45.7424 16.8092 45.4011 16.5297C44.6643 15.8908 42.686 13.7237 41.8438 12.682C41.7749 12.5912 41.6768 12.5113 41.6006 12.4714L41.6442 12.3299C42.4065 12.054 43.9129 10.533 45.0055 9.24079C45.3177 8.84876 45.4701 8.59104 45.4701 8.37324C45.4701 8.26434 45.3866 8.17722 45.1289 8.11552C44.9256 8.06833 44.7223 8.00299 44.3412 7.95943L44.3557 7.73438L44.3521 7.73801Z" fill="black"/>
<path d="M49.9121 9.05413C50.2316 9.05413 50.7325 9.09406 51.4984 9.09406H54.1737C54.6927 9.09406 55.3824 9.07954 55.6438 9.04688L55.6873 9.07954C55.5603 9.50061 55.4841 10.3101 55.4369 10.7929L55.1973 10.8038C55.1683 10.4117 55.1029 10.1395 55.0448 9.96524C54.9432 9.68574 54.8379 9.50424 54.3189 9.47157C53.9668 9.44254 52.4531 9.43165 52.2244 9.47157L52.0865 9.6567C52.0574 10.2193 52.0429 12.3864 52.0574 12.6804L52.1119 12.7821C52.464 12.8075 53.8796 12.793 54.2898 12.7675C54.7073 12.7385 54.8089 12.5461 54.8888 12.3065C54.9432 12.1686 54.9868 12.0089 55.0122 11.8528H55.2626C55.2191 12.0887 55.1646 12.5969 55.1646 13.0253C55.1646 13.5371 55.1937 13.8565 55.1937 14.1142L54.9541 14.1251C54.9178 13.8892 54.8997 13.8238 54.8561 13.6678C54.8162 13.508 54.7472 13.2503 54.2971 13.2104C53.9159 13.185 52.4966 13.185 52.1264 13.1995L52.0538 13.3048C52.0393 13.6532 52.0538 15.4174 52.0828 16.1906C52.0974 16.4882 52.2498 16.6189 52.4059 16.6479C52.6818 16.7024 53.2008 16.7278 54.112 16.7278C55.0231 16.7278 55.1392 16.5826 55.3316 16.3975C55.5712 16.2014 55.8797 15.6933 56.1012 15.1851L56.3044 15.2794C56.2463 15.6388 55.9015 16.6733 55.7382 16.9637C55.6619 17.0908 55.6039 17.1053 54.9178 17.1053C54.0757 17.1053 53.4586 17.069 51.5057 17.069C50.6055 17.069 50.1771 17.1053 49.5854 17.1053V16.902C49.9484 16.8766 50.2461 16.8585 50.4857 16.7968C50.8087 16.7169 50.9176 16.5572 50.9612 16.049C50.9757 15.7332 50.9975 14.234 50.9975 12.7385C50.9975 11.5043 50.9757 10.2919 50.9612 10.0415C50.9321 9.55143 50.8741 9.43528 50.5329 9.35542C50.3586 9.30823 50.1626 9.27556 49.894 9.25378L49.9158 9.05413H49.9121Z" fill="black"/>
<path d="M56.7255 9.05413C56.9905 9.05413 57.6693 9.09406 58.1557 9.09406C58.4679 9.09406 58.6567 9.09406 58.7873 9.07954C58.82 9.16666 58.9579 9.36994 59.3173 9.77649C60.791 11.4862 63.8801 15.0145 64.4936 15.6933L64.5408 15.6715C64.5408 13.9473 64.5625 10.9526 64.4827 10.0996C64.45 9.72204 64.3665 9.50424 63.9781 9.3772C63.7385 9.31549 63.4663 9.28645 63.136 9.25015L63.1469 9.0505C63.5135 9.0505 64.1197 9.09043 64.7694 9.09043C65.1941 9.09043 65.9092 9.0505 66.069 9.0505V9.25015C65.8185 9.28282 65.6987 9.31549 65.5281 9.35179C65.1687 9.46431 65.0816 9.73293 65.0671 10.0596C64.9872 11.0941 64.9945 13.6786 64.9727 15.3956C64.9727 15.9836 64.9872 16.7133 64.9945 17.1343C64.8529 17.1162 64.3665 17.1162 64.1887 17.1343C63.5135 16.1942 59.2048 11.2212 58.5877 10.4952L58.5332 10.5025C58.5078 11.8274 58.5187 15.225 58.5478 15.9328C58.5732 16.5572 58.7728 16.7133 59.0922 16.7931C59.3028 16.8439 59.5714 16.873 59.8327 16.8984L59.8146 17.1017C59.5569 17.1017 58.9362 17.0654 58.2574 17.0654C57.5786 17.0654 57.1067 17.1017 56.8235 17.1017V16.8984C57.1067 16.873 57.2591 16.8548 57.4297 16.804C57.7455 16.7241 57.9379 16.579 57.9851 15.9401C58.0251 15.3266 58.0831 12.9309 58.1122 10.2302C58.1122 10.056 57.9996 9.77649 57.7891 9.59862C57.4951 9.33727 57.2011 9.31186 56.6929 9.24652L56.7219 9.04688L56.7255 9.05413Z" fill="black"/>
<path d="M66.3159 9.05469C66.7406 9.05469 67.3287 9.09462 68.0293 9.09462C68.5302 9.09462 69.2017 9.06558 69.3868 9.05469L69.4086 9.25433C69.2779 9.26885 69.071 9.31967 68.9513 9.34508C68.7444 9.39953 68.6863 9.5048 68.8278 9.79156C69.2017 10.5248 70.4032 12.6265 70.6791 13.0839H70.7372C71.2163 12.3107 72.1964 10.6809 72.5158 9.94765C72.661 9.60644 72.5848 9.43583 72.1964 9.35597C72.004 9.31967 71.8842 9.30878 71.6011 9.25433L71.6338 9.05469C71.9931 9.06558 72.5812 9.09462 73.0313 9.09462C73.5794 9.09462 73.917 9.06558 74.4252 9.05469V9.25433L73.8444 9.35597C73.3943 9.44672 73.2019 9.73711 72.9478 10.14C72.3706 11.0294 71.2381 12.9097 70.9985 13.4215C70.9296 13.5267 70.8824 13.73 70.8824 13.8571L70.9296 15.9443C70.9405 16.4706 70.9985 16.7392 71.4196 16.8372C71.6338 16.8772 71.71 16.888 72.0802 16.9243L72.0476 17.1095C71.739 17.1095 70.9731 17.0732 70.2798 17.0732C69.4849 17.0732 68.9621 17.1095 68.5374 17.1095V16.9243C68.8605 16.9026 69.111 16.859 69.3288 16.8227C69.7208 16.7392 69.7752 16.4561 69.7861 16.0495L69.8188 14.1584C69.8188 13.9551 69.7861 13.6719 69.7063 13.5267C69.4014 12.8697 68.5556 11.3706 68.022 10.4812C67.4158 9.5048 67.2779 9.43583 66.8967 9.34508C66.7152 9.29063 66.5483 9.29063 66.2905 9.25433L66.305 9.05469H66.3159Z" fill="black"/>
<path d="M74.3433 15.7683C75.1491 13.9389 76.4486 10.5304 76.7644 9.70638C76.8552 9.47043 76.9205 9.23449 76.9459 9.08203C77.0076 9.08203 77.142 9.09292 77.3416 9.09292C77.563 9.09292 77.6755 9.08203 77.7264 9.08203L77.8825 9.65193C78.1837 10.4324 79.7265 14.908 80.1403 15.9099C80.5214 16.7339 80.5904 16.7883 81.5196 16.8972L81.487 17.1005C81.1458 17.086 80.3689 17.0642 79.9334 17.0642C79.378 17.0642 78.6157 17.0787 78.2817 17.1005V16.8972C78.5467 16.8537 78.7827 16.8283 78.9714 16.7629C79.1783 16.6722 79.1783 16.5705 79.1239 16.4145C78.9714 15.8482 78.4596 14.5305 78.2091 13.8372L78.1002 13.7683C77.9514 13.7537 77.6501 13.7537 76.8842 13.7537C76.0385 13.7537 75.8787 13.7537 75.7227 13.7683L75.6101 13.8554C75.3488 14.5305 74.7825 15.9099 74.7426 16.2693C74.7172 16.4871 74.7026 16.7012 75.1455 16.792C75.3161 16.8319 75.4577 16.8718 75.7517 16.8972L75.7227 17.1005C75.4177 17.1005 74.7426 17.0642 74.1291 17.0642C73.4794 17.0642 73.0728 17.1005 72.8042 17.1005V16.8972C73.7589 16.7738 73.9186 16.6867 74.3397 15.7683M76.9423 10.269C76.71 10.8679 76.0639 12.6611 75.8497 13.2347L75.9078 13.3181C76.0385 13.3254 76.3579 13.3254 77.0367 13.3254C77.3706 13.3254 77.8825 13.3254 77.9805 13.3181L78.0131 13.2347L77.0076 10.2545L76.9459 10.269H76.9423Z" fill="black"/>
<path d="M86.2819 7.73828C86.6703 7.73828 87.5052 7.78184 87.9625 7.78184C88.9753 7.78184 89.7267 7.7528 90.4926 7.7528C92.362 7.7528 93.2695 8.75103 93.2695 10.0396C93.2695 11.3283 92.3221 12.0579 91.371 12.4209L91.3565 12.5153C91.9155 13.3647 93.3203 15.3466 94.1044 16.0617C94.8449 16.7514 95.0844 16.8094 95.8395 16.8712L95.785 17.1144C95.1389 17.1543 93.9265 17.0926 93.3965 16.8857C93.1424 16.7768 92.8847 16.5953 92.6379 16.3267C92.0135 15.6805 90.9173 13.9019 90.3038 13.0815C90.1877 12.8964 90.0425 12.8202 89.9118 12.8202C89.6831 12.8056 89.0914 12.8419 88.8773 12.8419L88.8156 12.9363C88.8156 13.7894 88.8156 15.2849 88.8555 15.9165C88.8664 16.5554 88.9789 16.6642 89.2875 16.7368C89.5379 16.7986 89.7956 16.8276 90.1223 16.8784L90.1078 17.1216C89.8501 17.1216 88.9789 17.0744 88.1767 17.0744C87.0841 17.0744 86.5142 17.1216 86.2855 17.1216V16.8929C86.6122 16.8457 86.8772 16.8203 87.0369 16.7731C87.4181 16.6824 87.5088 16.4791 87.5378 15.9201C87.5524 15.4918 87.5778 13.2594 87.5778 12.4209C87.5778 11.4118 87.5778 9.379 87.5378 8.76192C87.5306 8.36626 87.4181 8.13394 87.0151 8.08312C86.8264 8.0323 86.5324 7.98875 86.271 7.97423L86.2855 7.74917L86.2819 7.73828ZM88.9354 8.16298L88.8628 8.34811C88.8119 8.7837 88.8119 10.8201 88.8119 12.2902L88.8736 12.3664C89.469 12.4209 90.4273 12.4572 90.8447 12.3011C91.3456 12.1232 91.9954 11.6187 91.9954 10.37C91.9954 8.96882 91.146 8.10853 89.4327 8.10853C89.2838 8.10853 89.0733 8.11216 88.9354 8.16298Z" fill="black"/>
<path d="M95.9071 9.05413C96.2374 9.05413 96.7347 9.09406 97.497 9.09406H100.176C100.699 9.09406 101.381 9.07954 101.653 9.04688L101.693 9.07954C101.563 9.50061 101.475 10.3101 101.443 10.7929L101.203 10.8038C101.178 10.4117 101.105 10.1395 101.051 9.96524C100.956 9.68574 100.84 9.50424 100.321 9.47157C99.9763 9.44254 98.4553 9.43165 98.2339 9.47157C98.1286 9.48609 98.0887 9.58773 98.0887 9.6567C98.0597 10.2193 98.0451 12.3864 98.0596 12.6804L98.1105 12.7821C98.4662 12.8075 99.8855 12.793 100.292 12.7675C100.713 12.7385 100.804 12.5461 100.891 12.3065C100.953 12.1686 100.985 12.0089 101.018 11.8528H101.276C101.232 12.0887 101.174 12.5969 101.174 13.0253C101.174 13.5371 101.2 13.8565 101.2 14.1142L100.956 14.1251C100.916 13.8892 100.902 13.8238 100.862 13.6678C100.818 13.508 100.749 13.2503 100.314 13.2104C99.9218 13.185 98.5061 13.185 98.1286 13.1995L98.0596 13.3048C98.0451 13.6532 98.0597 15.4174 98.0887 16.1906C98.0996 16.4882 98.2593 16.6189 98.4118 16.6479C98.6949 16.7024 99.2103 16.7278 100.121 16.7278C101.033 16.7278 101.145 16.5826 101.345 16.3975C101.581 16.2014 101.889 15.6933 102.118 15.1851L102.31 15.2794C102.249 15.6388 101.904 16.6733 101.751 16.9637C101.661 17.0908 101.61 17.1053 100.924 17.1053C100.085 17.1053 99.4644 17.069 97.5152 17.069C96.6258 17.069 96.1866 17.1053 95.5913 17.1053V16.902C95.9579 16.8766 96.2519 16.8585 96.4915 16.7968C96.8146 16.7169 96.9308 16.5572 96.9671 16.049C96.9816 15.7332 96.9961 14.234 96.9961 12.7385C96.9961 11.5043 96.9816 10.2919 96.9671 10.0415C96.9416 9.55143 96.8799 9.43528 96.5351 9.35542C96.3645 9.30823 96.1685 9.27556 95.8999 9.25378L95.9107 9.05413H95.9071Z" fill="black"/>
<path d="M102.307 9.05469C102.616 9.05469 103.331 9.09462 103.937 9.09462C104.747 9.09462 105.208 9.06558 105.505 9.05469V9.25433C105.171 9.31967 105.012 9.35597 104.859 9.39953C104.678 9.44672 104.62 9.58466 104.689 9.75163C105.12 10.8878 106.892 15.1602 107.102 15.6212H107.164C107.364 15.1892 109.073 11.1891 109.458 10.1328C109.611 9.68992 109.589 9.47213 109.193 9.37775C108.986 9.33782 108.801 9.29063 108.493 9.25796L108.536 9.05832C108.83 9.05832 109.335 9.09825 109.945 9.09825C110.598 9.09825 111.041 9.05832 111.291 9.05832V9.25796C111.095 9.27974 110.885 9.3233 110.729 9.3596C110.326 9.47213 110.184 9.70081 109.814 10.5357C109.418 11.4359 108.282 14.0095 107.6 15.614C107.342 16.231 107.16 16.7429 107.03 17.1603C106.845 17.1421 106.554 17.1421 106.416 17.1603C106.249 16.6557 106.064 16.0641 105.781 15.3998C105.081 13.632 104.111 11.229 103.658 10.238C103.382 9.60644 103.226 9.41042 102.866 9.34508L102.271 9.25433L102.304 9.05469H102.307Z" fill="black"/>
<path d="M111.818 9.05413C112.141 9.05413 112.639 9.09406 113.405 9.09406H116.084C116.603 9.09406 117.289 9.07954 117.557 9.04688L117.59 9.07954C117.47 9.50061 117.383 10.3101 117.336 10.7929L117.104 10.8038C117.078 10.4117 117.006 10.1395 116.951 9.96524C116.853 9.68574 116.737 9.50424 116.225 9.47157C115.88 9.44254 114.359 9.43165 114.134 9.47157L113.993 9.6567C113.967 10.2193 113.949 12.3864 113.967 12.6804L114.022 12.7821C114.37 12.8075 115.779 12.793 116.189 12.7675C116.614 12.7385 116.712 12.5461 116.795 12.3065C116.849 12.1686 116.893 12.0089 116.911 11.8528H117.173C117.129 12.0887 117.078 12.5969 117.078 13.0253C117.078 13.5371 117.104 13.8565 117.104 14.1142L116.864 14.1251C116.824 13.8892 116.81 13.8238 116.762 13.6678C116.722 13.508 116.657 13.2503 116.207 13.2104C115.826 13.185 114.417 13.185 114.029 13.1995L113.964 13.3048C113.949 13.6532 113.964 15.4174 113.989 16.1906C114.007 16.4882 114.149 16.6189 114.312 16.6479C114.599 16.7024 115.111 16.7278 116.033 16.7278C116.893 16.7278 117.045 16.5826 117.241 16.3975C117.477 16.2014 117.79 15.6933 118.011 15.1851L118.211 15.2794C118.149 15.6388 117.804 16.6733 117.648 16.9637C117.557 17.0908 117.506 17.1053 116.82 17.1053C115.975 17.1053 115.358 17.069 113.419 17.069C112.515 17.069 112.083 17.1053 111.492 17.1053V16.902C111.855 16.8766 112.149 16.8585 112.388 16.7968C112.708 16.7169 112.82 16.5572 112.867 16.049C112.882 15.7332 112.896 14.234 112.896 12.7385C112.896 11.5043 112.882 10.2919 112.867 10.0415C112.835 9.55143 112.78 9.43528 112.435 9.35542C112.265 9.30823 112.072 9.27556 111.808 9.25378L111.818 9.05413Z" fill="black"/>
<path d="M118.632 9.05413C118.9 9.05413 119.576 9.09406 120.062 9.09406C120.374 9.09406 120.57 9.09406 120.697 9.07954C120.737 9.16666 120.868 9.36994 121.231 9.77649C122.694 11.4862 125.786 15.0145 126.403 15.6933L126.443 15.6715C126.443 13.9473 126.476 10.9526 126.389 10.0996C126.364 9.72204 126.28 9.50424 125.888 9.3772C125.648 9.31549 125.387 9.28645 125.042 9.25015L125.057 9.0505C125.423 9.0505 126.026 9.09043 126.69 9.09043C127.104 9.09043 127.819 9.0505 127.993 9.0505V9.25015C127.732 9.28282 127.609 9.31549 127.445 9.35179C127.079 9.46431 126.995 9.73293 126.984 10.0596C126.89 11.0941 126.912 13.6786 126.883 15.3956C126.883 15.9836 126.886 16.7133 126.912 17.1343C126.759 17.1162 126.28 17.1162 126.099 17.1343C125.423 16.1942 121.115 11.2212 120.498 10.4952L120.45 10.5025C120.421 11.8274 120.443 15.225 120.461 15.9328C120.483 16.5572 120.683 16.7133 121.006 16.7931C121.224 16.8439 121.485 16.873 121.75 16.8984L121.735 17.1017C121.47 17.1017 120.857 17.0654 120.167 17.0654C119.478 17.0654 119.02 17.1017 118.737 17.1017V16.8984C119.02 16.873 119.176 16.8548 119.354 16.804C119.659 16.7241 119.859 16.579 119.902 15.9401C119.942 15.3266 119.993 12.9309 120.022 10.2302C120.022 10.056 119.906 9.77649 119.695 9.59862C119.409 9.33727 119.111 9.31186 118.599 9.24652L118.632 9.04688V9.05413Z" fill="black"/>
<path d="M128.425 9.05469C128.632 9.05469 129.322 9.09462 130.033 9.09462C130.745 9.09462 131.242 9.05469 131.55 9.05469V9.25433C131.267 9.30878 131.126 9.31967 130.955 9.37412C130.712 9.43583 130.621 9.56651 130.592 10.0856C130.556 11.1129 130.567 13.4033 130.592 14.1003C130.65 15.0078 130.784 15.4361 131.06 15.8136C131.496 16.4416 132.334 16.7683 133.293 16.7683C134.549 16.7683 135.62 16.3073 135.732 14.329C135.786 13.3453 135.816 11.6428 135.757 10.3143C135.747 9.53021 135.507 9.42131 135.133 9.34508C134.937 9.31241 134.817 9.31241 134.549 9.26885L134.567 9.06921C134.785 9.06921 135.253 9.09825 136.037 9.09825C136.621 9.09825 137.057 9.06921 137.311 9.06921V9.26885C137.101 9.29063 136.919 9.31967 136.792 9.35597C136.44 9.4685 136.342 9.64636 136.313 10.376C136.258 13.1892 136.258 13.9732 136.106 14.8226C135.805 16.7138 134.374 17.3019 132.835 17.3019C130.777 17.3019 129.739 16.4561 129.536 14.9497C129.42 14.1402 129.47 11.1129 129.445 10.0638C129.445 9.7117 129.401 9.4685 129.089 9.37775C128.933 9.3233 128.617 9.27974 128.421 9.25796V9.05832L128.425 9.05469Z" fill="black"/>
<path d="M137.837 9.05413C138.153 9.05413 138.665 9.09406 139.416 9.09406H142.095C142.614 9.09406 143.304 9.07954 143.569 9.04688L143.605 9.07954C143.485 9.50061 143.398 10.3101 143.358 10.7929L143.119 10.8038C143.093 10.4117 143.024 10.1395 142.97 9.96524C142.872 9.68574 142.763 9.50424 142.244 9.47157C141.888 9.44254 140.374 9.43165 140.146 9.47157L140.011 9.6567C139.986 10.2193 139.961 12.3864 139.986 12.6804L140.04 12.7821C140.385 12.8075 141.808 12.793 142.208 12.7675C142.629 12.7385 142.73 12.5461 142.814 12.3065C142.868 12.1686 142.904 12.0089 142.934 11.8528H143.191C143.144 12.0887 143.093 12.5969 143.093 13.0253C143.093 13.5371 143.119 13.8565 143.119 14.1142L142.883 14.1251C142.839 13.8892 142.828 13.8238 142.781 13.6678C142.741 13.508 142.676 13.2503 142.218 13.2104C141.841 13.185 140.432 13.185 140.055 13.1995L139.982 13.3048C139.957 13.6532 139.982 15.4174 140.008 16.1906C140.026 16.4882 140.175 16.6189 140.324 16.6479C140.603 16.7024 141.126 16.7278 142.037 16.7278C142.948 16.7278 143.061 16.5826 143.253 16.3975C143.493 16.2014 143.805 15.6933 144.026 15.1851L144.226 15.2794C144.164 15.6388 143.812 16.6733 143.663 16.9637C143.572 17.0908 143.518 17.1053 142.828 17.1053C141.993 17.1053 141.376 17.069 139.423 17.069C138.527 17.069 138.08 17.1053 137.5 17.1053V16.902C137.873 16.8766 138.164 16.8585 138.407 16.7968C138.719 16.7169 138.839 16.5572 138.879 16.049C138.89 15.7332 138.915 14.234 138.915 12.7385C138.915 11.5043 138.89 10.2919 138.879 10.0415C138.846 9.55143 138.788 9.43528 138.44 9.35542C138.269 9.30823 138.077 9.27556 137.815 9.25378L137.83 9.05413H137.837Z" fill="black"/>
<path d="M39.6881 27.4974C40.6355 25.3739 42.131 21.4028 42.5121 20.4445C42.6138 20.1722 42.69 19.8963 42.7227 19.7148C42.788 19.7148 42.9513 19.7257 43.18 19.7257C43.445 19.7257 43.5757 19.7148 43.6229 19.7148L43.8225 20.3827C44.1637 21.2902 45.9569 26.5028 46.4542 27.6753C46.8862 28.6299 46.966 28.6953 48.055 28.8114L48.0151 29.051C47.6085 29.0365 46.7083 29.0074 46.2038 29.0074C45.5467 29.0074 44.6683 29.022 44.2799 29.051V28.8114C44.5848 28.7642 44.8679 28.7388 45.0821 28.659C45.3217 28.5573 45.3217 28.4339 45.2563 28.256C45.0821 27.6027 44.4904 26.0599 44.2 25.2577L44.0694 25.1742C43.9024 25.167 43.5467 25.167 42.6718 25.167C41.67 25.167 41.4849 25.167 41.3106 25.1742L41.1763 25.2868C40.8678 26.0636 40.218 27.6789 40.1672 28.0891C40.1309 28.3468 40.1164 28.5864 40.6391 28.6989C40.8351 28.7424 40.9948 28.786 41.3397 28.815L41.307 29.0546C40.9404 29.0546 40.1636 29.0111 39.4412 29.0111C38.7189 29.0111 38.2216 29.0546 37.9058 29.0546V28.815C39.0165 28.6807 39.198 28.5718 39.6917 27.501M42.7299 21.1015C42.4504 21.802 41.699 23.8856 41.4558 24.5572L41.5212 24.6406C41.67 24.6552 42.0439 24.6552 42.8243 24.6552C43.2163 24.6552 43.8262 24.6552 43.9423 24.6406L43.9714 24.5572L42.7953 21.0833L42.7299 21.0978V21.1015Z" fill="black"/>
<path d="M47.2197 20.9922C47.4302 20.9922 48.1199 21.0321 48.8277 21.0321C49.5355 21.0321 50.0401 20.9922 50.3414 20.9922V21.1918C50.0655 21.2427 49.9203 21.2608 49.7533 21.308C49.5029 21.3806 49.4194 21.5076 49.3904 22.0231C49.3468 23.0431 49.3613 25.3481 49.3904 26.0378C49.4484 26.9416 49.5718 27.37 49.8513 27.7511C50.2906 28.3863 51.1291 28.7058 52.0801 28.7058C53.347 28.7058 54.4105 28.252 54.5231 26.2665C54.5811 25.2827 54.6029 23.5839 54.5485 22.2518C54.5412 21.4677 54.298 21.3624 53.935 21.2862C53.739 21.2427 53.6119 21.2427 53.3506 21.21L53.3615 21.0103C53.5865 21.0103 54.0439 21.0357 54.8352 21.0357C55.4196 21.0357 55.8552 21.0103 56.1057 21.0103V21.21C55.8988 21.2318 55.7137 21.2644 55.5902 21.3007C55.2345 21.4024 55.1401 21.5875 55.1111 22.3207C55.053 25.1339 55.053 25.9107 54.9042 26.7638C54.6029 28.6586 53.1727 29.243 51.6336 29.243C49.5682 29.243 48.5228 28.3936 48.3377 26.8944C48.2215 26.0813 48.2614 23.0467 48.236 22.0086C48.236 21.6528 48.1997 21.4024 47.8839 21.3116C47.7315 21.2644 47.4084 21.2209 47.2124 21.1955V20.9958L47.2197 20.9922Z" fill="black"/>
<path d="M62.3921 29.0468C61.9601 29.0468 61.2087 29.0033 60.6497 29.0033C59.7568 29.0033 59.0671 29.0468 58.6605 29.0468V28.8508C59.0707 28.8145 59.3756 28.7709 59.5607 28.7346C59.9709 28.662 60.0217 28.4043 60.0508 27.8054C60.0762 27.2319 60.0943 23.5838 60.0943 21.4966L60.0109 21.4022C59.7422 21.3877 58.3556 21.3877 58.058 21.4167C57.8111 21.4276 57.6369 21.5474 57.499 21.7579C57.3211 22.0157 57.1396 22.4876 56.9799 22.8905L56.7476 22.8469C56.8528 22.3169 56.9617 21.3804 56.998 20.865L57.067 20.8359C57.332 20.9557 57.8148 21.032 58.1632 21.032H63.3213C63.8295 21.032 64.1272 21.0065 64.5591 20.8722L64.6136 20.9013C64.4902 21.2933 64.3885 22.1645 64.3341 22.8651H64.08C64.0546 22.5202 63.9856 22.0665 63.8695 21.8051C63.7606 21.5547 63.6045 21.4494 63.3213 21.424C62.8023 21.3986 61.5572 21.3986 61.2632 21.4131L61.1906 21.5329C61.1906 23.3805 61.2269 27.1629 61.2523 27.8453C61.2958 28.5749 61.4483 28.662 61.7387 28.7492C61.9492 28.8 62.0872 28.8145 62.432 28.8508L62.3993 29.0468H62.3921Z" fill="black"/>
<path d="M65.2824 20.9922C65.6926 20.9922 66.4404 21.0321 66.9631 21.0321C67.7835 21.0321 68.1174 21.0067 68.5167 20.9922L68.4949 21.2064C68.3316 21.2136 68.0775 21.2608 67.9359 21.2971C67.6528 21.3806 67.5475 21.4532 67.533 21.8997C67.4967 22.455 67.4967 23.3734 67.4967 24.5785L67.5765 24.6802C67.6201 24.702 67.7943 24.7092 70.0267 24.7092C71.2609 24.7092 72.0305 24.7092 72.1829 24.702L72.2337 24.6294C72.2337 23.9506 72.2337 22.23 72.212 21.7581C72.2011 21.533 72.1103 21.3806 71.9143 21.308C71.6784 21.2427 71.4678 21.2172 71.2246 21.2064V20.9922C71.5223 20.9922 72.1103 21.0321 72.8436 21.0321C73.5115 21.0321 74.154 20.9922 74.3863 20.9922V21.2064C74.1322 21.239 73.9216 21.2608 73.7692 21.308C73.4933 21.3987 73.3844 21.4786 73.359 22.0049C73.3372 22.4986 73.3154 23.4533 73.3154 25.1121C73.3154 26.183 73.3372 27.6603 73.359 28.0959C73.3844 28.488 73.4461 28.6332 73.7147 28.7058C73.8926 28.7711 74.0741 28.7965 74.4843 28.8364L74.448 29.0506C73.918 29.0506 73.4969 29.007 72.8399 29.007C72.1829 29.007 71.5078 29.0325 71.1738 29.0506V28.8364C71.4061 28.8147 71.5876 28.8001 71.8272 28.7493C72.1285 28.6658 72.2083 28.5533 72.2192 28.0705C72.2301 27.6749 72.2301 26.0704 72.2301 25.2465L72.1611 25.1557C71.9542 25.1412 70.691 25.1412 69.9904 25.1412C68.8434 25.1412 67.6927 25.1412 67.5475 25.163L67.4894 25.2465C67.4894 25.9361 67.5112 27.6095 67.5257 27.9217C67.5693 28.3682 67.5475 28.615 67.8851 28.7058C68.0775 28.7566 68.2227 28.7965 68.6329 28.8364L68.5893 29.0506C68.1973 29.0325 67.6383 29.007 66.9921 29.007C66.346 29.007 65.6019 29.0325 65.2788 29.0506V28.8364C65.5765 28.8147 65.787 28.7747 65.9503 28.7203C66.3424 28.615 66.3787 28.3573 66.4041 27.7402C66.4186 27.3191 66.4186 26.0414 66.4186 24.9161C66.4186 23.6529 66.4041 22.1029 66.3896 21.8851C66.3642 21.4967 66.2516 21.3624 66.0229 21.308C65.8124 21.2608 65.6273 21.2427 65.2788 21.2064V20.9922H65.2824Z" fill="black"/>
<path d="M75.5436 28.0282C74.7233 27.1788 74.353 26.039 74.353 24.9609C74.353 24.0172 74.6507 23.1895 75.1226 22.5253C75.9066 21.469 77.4022 20.8047 78.8396 20.8047C81.6238 20.8047 83.0721 22.7213 83.0721 24.8811C83.0721 25.9519 82.7926 26.7868 82.2481 27.5309C81.4386 28.6562 80.0338 29.2406 78.6291 29.2406C77.3804 29.2406 76.2442 28.7469 75.54 28.0246M80.7018 28.3368C81.5766 27.6471 81.896 26.5109 81.896 25.2985C81.896 23.9627 81.4168 22.5071 80.2843 21.7412C79.7834 21.3782 79.1663 21.164 78.404 21.164C77.8922 21.164 77.4421 21.2947 77.0573 21.4944C76.0409 22.0824 75.5908 23.313 75.5908 24.6488C75.5908 25.9846 76.0954 27.5273 77.3405 28.3368C77.816 28.6526 78.4222 28.8341 79.1518 28.8341C79.7689 28.8341 80.3279 28.6562 80.7054 28.3368" fill="black"/>
<path d="M82.742 20.9922C83.0759 20.9922 83.8019 21.0321 84.1831 21.0321C85.0543 21.0321 85.7004 21.0067 86.3574 21.0067C87.9582 21.0067 88.7422 21.8706 88.7422 22.9705C88.7422 24.0704 87.9328 24.7092 87.1124 25.0141L87.1015 25.0976C87.5734 25.8272 88.7858 27.5297 89.4537 28.1468C90.0889 28.7348 90.2995 28.782 90.9492 28.8328L90.8984 29.047C90.3394 29.0833 89.3013 29.0288 88.8475 28.851C88.6297 28.7566 88.4047 28.6078 88.1941 28.3682C87.6605 27.8201 86.724 26.2882 86.194 25.5877C86.0924 25.4352 85.969 25.3626 85.8528 25.3626C85.6605 25.3481 85.1523 25.3735 84.9671 25.3735L84.9127 25.4534C84.9127 26.183 84.9127 27.4789 84.9381 28.0161C84.9526 28.5678 85.0506 28.6586 85.3192 28.7203C85.5298 28.7747 85.7512 28.8001 86.0307 28.8364L86.0198 29.0506C85.7911 29.0506 85.0506 29.007 84.3609 29.007C83.4208 29.007 82.9308 29.0506 82.7384 29.0506V28.8546C83.0251 28.8183 83.2393 28.7893 83.3845 28.753C83.7076 28.6695 83.7983 28.5025 83.8128 28.0197C83.8346 27.6567 83.8527 25.7365 83.8527 25.0141C83.8527 24.1502 83.8527 22.397 83.8128 21.8779C83.8092 21.5403 83.7076 21.3407 83.37 21.2935C83.1921 21.2499 82.9489 21.2172 82.7202 21.2027L82.7347 21.0031L82.742 20.9922ZM85.0288 21.3588L84.9562 21.5113C84.9163 21.896 84.9163 23.6493 84.9163 24.898L84.9708 24.9633C85.4717 25.0069 86.3029 25.0432 86.6514 24.9089C87.0906 24.7492 87.646 24.3208 87.646 23.25C87.646 22.0449 86.9164 21.3007 85.4499 21.3007C85.3229 21.3007 85.1414 21.3116 85.0288 21.3552" fill="black"/>
<path d="M90.8081 20.9922C91.1348 20.9922 91.7991 21.0321 92.5069 21.0321C93.2147 21.0321 93.6685 20.9922 93.9807 20.9922L93.9915 21.1918L93.4035 21.2826C93.0986 21.377 93.0587 21.5439 93.0224 21.9832C92.9969 22.4841 92.9861 23.7872 92.9861 24.9125C92.9861 26.3245 92.9969 27.5841 93.0078 28.0088C93.0441 28.39 93.0623 28.6404 93.4507 28.7312C93.6286 28.782 93.8826 28.811 94.1331 28.8328L94.1186 29.047C93.7229 29.047 93.2401 29.0034 92.6049 29.0034C91.7991 29.0034 91.5087 29.047 90.8263 29.047V28.8328C91.0332 28.8183 91.2945 28.782 91.447 28.7457C91.7991 28.6731 91.8499 28.4952 91.8789 28.1468C91.9043 27.7656 91.9225 25.7946 91.9225 24.6003C91.9225 23.5404 91.9225 22.5494 91.8971 21.9505C91.8535 21.6492 91.8535 21.3878 91.5522 21.308C91.3925 21.2717 91.1529 21.2281 90.819 21.1918V20.9922H90.8081Z" fill="black"/>
<path d="M100.358 29.0468C99.9227 29.0468 99.1604 29.0033 98.616 29.0033C97.7157 29.0033 97.0297 29.0468 96.634 29.0468V28.8508C97.0333 28.8145 97.3455 28.7709 97.527 28.7346C97.9335 28.662 97.988 28.4043 98.017 27.8054C98.0461 27.2319 98.0606 23.5838 98.0606 21.4966L97.9771 21.4022C97.7049 21.3877 96.3182 21.3877 96.0206 21.4167C95.7701 21.4276 95.6031 21.5474 95.4652 21.7579C95.2801 22.0157 95.0986 22.4876 94.9425 22.8905L94.7065 22.8469C94.8118 22.3169 94.9316 21.3804 94.9643 20.865L95.0296 20.8359C95.2946 20.9557 95.7701 21.032 96.1186 21.032H101.28C101.785 21.032 102.086 21.0065 102.515 20.8722L102.576 20.9013C102.449 21.2933 102.351 22.1645 102.289 22.8651H102.043C102.006 22.5202 101.941 22.0665 101.828 21.8051C101.716 21.5547 101.556 21.4494 101.28 21.424C100.758 21.3986 99.5162 21.3986 99.2294 21.4131L99.1568 21.5329C99.1568 23.3805 99.1786 27.1629 99.2113 27.8453C99.2512 28.5749 99.4109 28.662 99.6977 28.7492C99.9118 28.8 100.05 28.8145 100.391 28.8508L100.366 29.0468H100.358Z" fill="black"/>
<path d="M103.15 20.988C103.571 20.988 104.155 21.0279 104.86 21.0279C105.361 21.0279 106.039 21.0025 106.217 20.988L106.232 21.1877C106.105 21.2022 105.894 21.2566 105.782 21.2784C105.564 21.3256 105.517 21.4381 105.651 21.7249C106.036 22.4509 107.226 24.5562 107.499 25.0063H107.564C108.043 24.2404 109.023 22.6142 109.335 21.8773C109.48 21.5398 109.415 21.3728 109.019 21.2929C108.834 21.2566 108.707 21.2385 108.431 21.1877L108.457 20.988C108.823 21.0025 109.412 21.0279 109.865 21.0279C110.403 21.0279 110.74 21.0025 111.248 20.988V21.1877L110.671 21.2929C110.221 21.3837 110.025 21.6704 109.775 22.0806C109.201 22.9663 108.065 24.843 107.822 25.3584C107.749 25.4601 107.713 25.6706 107.713 25.7904L107.753 27.8812C107.767 28.4003 107.825 28.6725 108.243 28.7669C108.46 28.8105 108.544 28.8177 108.903 28.8577L108.874 29.0428C108.569 29.0428 107.796 28.9992 107.114 28.9992C106.315 28.9992 105.792 29.0428 105.368 29.0428V28.8577C105.698 28.8286 105.945 28.7923 106.155 28.7488C106.544 28.6689 106.613 28.3858 106.616 27.9829L106.642 26.088C106.642 25.8884 106.616 25.6016 106.526 25.4564C106.224 24.8031 105.379 23.3039 104.852 22.4109C104.243 21.4345 104.108 21.3691 103.731 21.2748C103.542 21.2203 103.379 21.2203 103.125 21.184L103.143 20.9844L103.15 20.988Z" fill="black"/>
<path d="M112.892 41.2677C112.837 41.177 112.765 41.1044 112.674 41.0499C112.583 40.9955 112.481 40.9701 112.376 40.9701C112.271 40.9701 112.166 40.9955 112.075 41.0499C111.984 41.1044 111.912 41.177 111.857 41.2677C111.803 41.3585 111.777 41.4601 111.777 41.569C111.777 41.6779 111.803 41.7759 111.857 41.8667C111.912 41.9574 111.984 42.03 112.075 42.0844C112.166 42.1389 112.267 42.1643 112.376 42.1643C112.485 42.1643 112.583 42.1389 112.674 42.0844C112.765 42.03 112.837 41.9574 112.892 41.8667C112.946 41.7759 112.971 41.6743 112.971 41.569C112.971 41.4637 112.946 41.3585 112.892 41.2677ZM113.258 38.2113C113.178 38.1206 113.051 38.077 112.87 38.077C112.71 38.077 112.583 38.1133 112.496 38.1823C112.405 38.2513 112.347 38.3311 112.314 38.4146C112.282 38.509 112.256 38.6796 112.238 38.9337L112.187 40.7813H112.794L113.247 39.1914C113.291 39.0426 113.32 38.9155 113.345 38.8103C113.367 38.705 113.378 38.607 113.378 38.509C113.378 38.4001 113.338 38.3021 113.262 38.2113M109.559 40.3856C109.628 40.2078 109.701 40.0662 109.781 39.9573C109.861 39.8484 109.97 39.794 110.107 39.794C110.336 39.794 110.449 39.9573 110.449 40.2876C110.449 40.313 110.449 40.3312 110.449 40.3421C110.449 40.353 110.449 40.3675 110.449 40.382H109.559V40.3856ZM111.204 39.7323C111.091 39.5326 110.939 39.3802 110.75 39.2821C110.561 39.1841 110.354 39.137 110.126 39.137C109.821 39.137 109.548 39.2132 109.305 39.362C109.062 39.5108 108.873 39.7141 108.735 39.9718C108.597 40.2259 108.528 40.5054 108.528 40.8067C108.528 41.0064 108.568 41.2096 108.652 41.4165C108.735 41.6234 108.891 41.7977 109.116 41.9465C109.345 42.0953 109.657 42.1679 110.057 42.1679C110.245 42.1679 110.401 42.1534 110.525 42.1244C110.648 42.0953 110.812 42.0409 111.019 41.9574L111.164 41.2387C110.946 41.3258 110.761 41.3948 110.605 41.4383C110.449 41.4855 110.271 41.5073 110.075 41.5073C109.679 41.5073 109.479 41.304 109.479 40.9011H111.331C111.356 40.7523 111.371 40.6107 111.371 40.4728C111.371 40.1787 111.313 39.9319 111.2 39.7323M106.307 40.3856C106.376 40.2078 106.448 40.0662 106.528 39.9573C106.608 39.8484 106.717 39.794 106.855 39.794C107.084 39.794 107.196 39.9573 107.196 40.2876C107.196 40.313 107.196 40.3312 107.196 40.3421C107.196 40.353 107.196 40.3675 107.196 40.382H106.307V40.3856ZM107.951 39.7323C107.839 39.5326 107.686 39.3802 107.498 39.2821C107.309 39.1841 107.102 39.137 106.873 39.137C106.568 39.137 106.296 39.2132 106.053 39.362C105.81 39.5108 105.621 39.7141 105.483 39.9718C105.345 40.2259 105.276 40.5054 105.276 40.8067C105.276 41.0064 105.316 41.2096 105.399 41.4165C105.483 41.6234 105.635 41.7977 105.864 41.9465C106.093 42.0953 106.405 42.1679 106.804 42.1679C106.993 42.1679 107.149 42.1534 107.272 42.1244C107.396 42.0953 107.559 42.0409 107.766 41.9574L107.911 41.2387C107.694 41.3258 107.508 41.3948 107.352 41.4383C107.196 41.4855 107.018 41.5073 106.822 41.5073C106.427 41.5073 106.227 41.304 106.227 40.9011H108.078C108.104 40.7523 108.118 40.6107 108.118 40.4728C108.118 40.1787 108.06 39.9319 107.948 39.7323M104.612 39.4128C104.485 39.2277 104.252 39.137 103.915 39.137C103.777 39.137 103.65 39.1587 103.534 39.2059C103.418 39.2495 103.316 39.3039 103.225 39.3693C103.138 39.431 103.058 39.4999 102.989 39.5689C102.848 39.2821 102.612 39.1406 102.281 39.1406C102.107 39.1406 101.944 39.1805 101.791 39.264C101.635 39.3475 101.508 39.4382 101.41 39.5326L101.465 39.1914H100.51L100.078 42.1171H101.04L101.305 40.2622C101.436 40.1352 101.548 40.0408 101.635 39.9791C101.726 39.9174 101.809 39.8883 101.893 39.8883C101.969 39.8883 102.024 39.9101 102.053 39.9501C102.082 39.9936 102.096 40.0553 102.096 40.1352C102.096 40.1824 102.085 40.2949 102.06 40.4728L101.817 42.1135H102.775L103.047 40.1933C103.28 39.9864 103.468 39.8811 103.61 39.8811C103.751 39.8811 103.824 39.9827 103.824 40.1824C103.824 40.2332 103.817 40.3022 103.806 40.3856L103.552 42.1099H104.514L104.761 40.4038C104.786 40.2114 104.801 40.0807 104.801 40.0045C104.801 39.794 104.735 39.5943 104.608 39.4092M97.8891 40.3784C97.9581 40.2005 98.0307 40.059 98.1106 39.9501C98.1904 39.8412 98.2993 39.7867 98.4373 39.7867C98.6659 39.7867 98.7785 39.9501 98.7785 40.2804C98.7785 40.3058 98.7785 40.3239 98.7785 40.3348C98.7785 40.3457 98.7785 40.3602 98.7785 40.3748H97.8891V40.3784ZM99.5335 39.725C99.421 39.5254 99.2685 39.3729 99.0798 39.2749C98.891 39.1769 98.6841 39.1297 98.4554 39.1297C98.1505 39.1297 97.8783 39.2059 97.635 39.3547C97.3918 39.5036 97.2031 39.7069 97.0652 39.9646C96.9272 40.2187 96.8582 40.4982 96.8582 40.7995C96.8582 40.9991 96.8982 41.2024 96.9817 41.4093C97.0651 41.6162 97.2176 41.7904 97.4463 41.9393C97.675 42.0881 97.9871 42.1607 98.3864 42.1607C98.5752 42.1607 98.7313 42.1462 98.8547 42.1171C98.9781 42.0881 99.1415 42.0336 99.3484 41.9501L99.4936 41.2314C99.2758 41.3185 99.0906 41.3875 98.9346 41.4311C98.7785 41.4783 98.6006 41.5 98.4046 41.5C98.0089 41.5 97.8093 41.2968 97.8093 40.8938H99.6605C99.686 40.745 99.7005 40.6034 99.7005 40.4655C99.7005 40.1715 99.6424 39.9246 99.5299 39.725M95.3373 42.883C95.2574 42.923 95.1086 42.9411 94.8908 42.9411C94.673 42.9411 94.5061 42.923 94.4044 42.883C94.3028 42.8431 94.252 42.7814 94.252 42.6943C94.252 42.6362 94.2774 42.5854 94.3246 42.5491C94.3717 42.5128 94.4661 42.4656 94.6041 42.4111L94.7856 42.4365C95.0614 42.4728 95.2393 42.5055 95.3264 42.5382C95.4135 42.5709 95.4571 42.6326 95.4571 42.7233C95.4571 42.7923 95.4172 42.8467 95.3373 42.883ZM95.3446 40.5345C95.2792 40.6579 95.1667 40.7196 95.0142 40.7196C94.9162 40.7196 94.8328 40.6833 94.7638 40.6107C94.6948 40.5381 94.6585 40.4401 94.6585 40.3094C94.6585 40.1933 94.6912 40.0662 94.7565 39.9355C94.8219 39.8012 94.9344 39.7359 95.0977 39.7359C95.2066 39.7359 95.2938 39.7722 95.3518 39.8412C95.4135 39.9101 95.4426 40.0081 95.4426 40.1388C95.4426 40.2804 95.4099 40.4111 95.3446 40.5345ZM95.0251 39.1841C94.7928 39.1841 94.5968 39.2168 94.4335 39.2821C94.2701 39.3475 94.1394 39.431 94.0414 39.5362C93.9434 39.6415 93.8708 39.754 93.8273 39.8738C93.7837 39.9936 93.7656 40.1098 93.7656 40.2187C93.7656 40.3929 93.8127 40.5635 93.9108 40.7377C94.0088 40.912 94.1431 41.0354 94.3173 41.108C93.8962 41.1697 93.6893 41.3367 93.6893 41.6126C93.6893 41.7396 93.722 41.8376 93.7873 41.9102C93.8527 41.9828 93.9398 42.0481 94.0487 42.1099C93.6131 42.2551 93.3953 42.4728 93.3953 42.756C93.3953 42.9048 93.4316 43.0282 93.5042 43.1262C93.5768 43.2242 93.6784 43.3005 93.8091 43.3513C93.9398 43.4021 94.0922 43.442 94.2701 43.4602C94.448 43.482 94.6476 43.4892 94.8727 43.4892C95.2792 43.4892 95.5914 43.442 95.8128 43.344C96.0342 43.246 96.1795 43.1335 96.2484 42.9992C96.321 42.8649 96.3537 42.7269 96.3537 42.5854C96.3537 42.1425 96.0125 41.8594 95.33 41.7323C95.0905 41.6888 94.9199 41.6525 94.8219 41.6307C94.7239 41.6053 94.6585 41.5835 94.6295 41.5581C94.6004 41.5327 94.5895 41.4964 94.5895 41.4492C94.5895 41.3911 94.6186 41.3476 94.673 41.3185C94.7275 41.2895 94.8037 41.2713 94.8945 41.2713H95.0651C95.3409 41.2713 95.5769 41.2278 95.7693 41.1407C95.9617 41.0535 96.1068 40.9338 96.2012 40.7777C96.2956 40.6216 96.3464 40.4437 96.3464 40.2441C96.3464 40.117 96.321 39.9791 96.2702 39.8303H96.684L96.7747 39.1769H95.0324L95.0251 39.1841ZM91.5223 40.3784C91.5912 40.2005 91.6638 40.059 91.7437 39.9501C91.8235 39.8412 91.9324 39.7867 92.0704 39.7867C92.2991 39.7867 92.4116 39.9501 92.4116 40.2804C92.4116 40.3058 92.4116 40.3239 92.4116 40.3348C92.4116 40.3457 92.4116 40.3602 92.4116 40.3748H91.5223V40.3784ZM93.1666 39.725C93.0541 39.5254 92.9016 39.3729 92.7129 39.2749C92.5241 39.1769 92.3172 39.1297 92.0885 39.1297C91.7836 39.1297 91.5114 39.2059 91.2682 39.3547C91.025 39.5036 90.8362 39.7069 90.6983 39.9646C90.5603 40.2187 90.4914 40.4982 90.4914 40.7995C90.4914 40.9991 90.5313 41.2024 90.6148 41.4093C90.6983 41.6162 90.8507 41.7904 91.0794 41.9393C91.3081 42.0881 91.6203 42.1607 92.0196 42.1607C92.2083 42.1607 92.3644 42.1462 92.4878 42.1171C92.6112 42.0881 92.7746 42.0336 92.9815 41.9501L93.1267 41.2314C92.9089 41.3185 92.7238 41.3875 92.5677 41.4311C92.4116 41.4783 92.2337 41.5 92.0377 41.5C91.642 41.5 91.4424 41.2968 91.4424 40.8938H93.2937C93.3191 40.745 93.3336 40.6034 93.3336 40.4655C93.3336 40.1715 93.2755 39.9246 93.163 39.725M89.6383 39.1805L89.7509 38.5961H88.7853L88.6728 39.1805H88.1283L87.9976 39.8992H88.5385L88.3388 40.9701C88.317 41.0826 88.3062 41.1879 88.3062 41.2895C88.3062 41.5182 88.3642 41.7033 88.484 41.8412C88.582 41.961 88.6946 42.0445 88.8143 42.0917C88.9341 42.1353 89.0575 42.1607 89.1846 42.1607C89.475 42.1607 89.7509 42.0844 90.0122 41.9284L90.0667 41.0427C89.8452 41.206 89.6565 41.2895 89.5004 41.2895C89.3552 41.2895 89.2862 41.2096 89.2862 41.0463C89.2862 40.9991 89.2935 40.9374 89.308 40.8575L89.5004 39.9029H90.0667L90.2191 39.1841H89.6347L89.6383 39.1805ZM86.6945 39.1805L86.277 42.1062H87.2498L87.6673 39.1805H86.6945ZM87.66 38.2912C87.6201 38.2222 87.5657 38.1678 87.4967 38.1278C87.4277 38.0879 87.3551 38.0661 87.2789 38.0661C87.1591 38.0661 87.0538 38.1097 86.9667 38.1968C86.8796 38.2839 86.836 38.3892 86.836 38.509C86.836 38.6288 86.8796 38.7304 86.9667 38.8175C87.0538 38.9046 87.1591 38.9482 87.2789 38.9482C87.3987 38.9482 87.5076 38.9046 87.5911 38.8175C87.6782 38.7304 87.7217 38.6288 87.7217 38.5053C87.7217 38.4291 87.7 38.3565 87.66 38.2876M84.8396 39.1769L84.4294 42.1026C84.404 42.2914 84.3568 42.4329 84.2878 42.5273C84.2189 42.6217 84.1027 42.6652 83.9394 42.6652C83.9103 42.6652 83.8849 42.6652 83.8704 42.6652L83.7542 43.4348C83.9067 43.4711 84.0337 43.4856 84.139 43.4856C84.4693 43.4856 84.7416 43.3876 84.9557 43.1879C85.1699 42.9883 85.3006 42.7306 85.3441 42.4075L85.8051 39.1769H84.8432H84.8396ZM85.7943 38.2876C85.7543 38.2186 85.6999 38.1641 85.6309 38.1242C85.5619 38.0843 85.4893 38.0625 85.4131 38.0625C85.2933 38.0625 85.1881 38.1061 85.1009 38.1932C85.0138 38.2803 84.9703 38.3856 84.9703 38.5053C84.9703 38.6251 85.0138 38.7268 85.1009 38.8139C85.1881 38.901 85.2933 38.9446 85.4131 38.9446C85.5329 38.9446 85.6418 38.901 85.7253 38.8139C85.8124 38.7268 85.856 38.6251 85.856 38.5017C85.856 38.4255 85.8342 38.3529 85.7943 38.2839M83.0464 39.1733L82.7887 40.9483C82.6253 41.1044 82.4947 41.2133 82.3966 41.2786C82.3023 41.3439 82.2043 41.3766 82.1026 41.3766C81.9429 41.3766 81.8594 41.2859 81.8594 41.1007C81.8594 41.0572 81.8594 41.0245 81.8667 40.9991L82.1317 39.1733H81.1806L80.9193 40.941C80.9011 41.0935 80.8902 41.2024 80.8902 41.2641C80.8902 41.3948 80.9156 41.5291 80.9628 41.6634C81.01 41.8013 81.0935 41.9138 81.2169 42.0082C81.3367 42.1026 81.5001 42.1498 81.707 42.1498C81.8122 42.1498 81.9139 42.1353 82.0155 42.1099C82.1171 42.0808 82.2006 42.0518 82.2696 42.0155C82.3386 41.9792 82.4112 41.9356 82.491 41.8812C82.5709 41.8267 82.629 41.7832 82.6689 41.7578L82.6217 42.099H83.5764L84.012 39.1733H83.05H83.0464ZM77.3511 38.1169L77.2276 38.9264H78.509L78.0407 42.099H79.0535L79.529 38.9264H80.8176L80.9338 38.1169H77.3474H77.3511ZM76.1822 41.1733C76.0479 41.0281 75.8737 40.9555 75.6668 40.9555C75.4925 40.9555 75.3437 41.01 75.2167 41.1225C75.0933 41.235 75.0315 41.3802 75.0315 41.5617C75.0315 41.7541 75.0824 41.8921 75.1913 41.9683C75.2965 42.0481 75.4127 42.099 75.5434 42.128C75.4925 42.2333 75.4345 42.324 75.3728 42.3966C75.311 42.4692 75.2276 42.5273 75.1295 42.5709C75.0279 42.6144 74.8936 42.6435 74.7303 42.6616L74.654 42.9738C74.792 42.9738 74.9154 42.9701 75.0243 42.9593C75.1332 42.952 75.2384 42.9338 75.3365 42.9121C75.4381 42.8903 75.5325 42.8576 75.6196 42.8141C75.7612 42.7487 75.8809 42.6725 75.9753 42.589C76.0697 42.5055 76.1496 42.4148 76.2113 42.3204C76.273 42.2224 76.3202 42.1244 76.3492 42.0264C76.3782 41.9284 76.3928 41.8304 76.3928 41.7287C76.3928 41.5037 76.3238 41.3149 76.1895 41.1697M73.7683 39.1733L73.5106 40.9483C73.3473 41.1044 73.2166 41.2133 73.1186 41.2786C73.0242 41.3439 72.9262 41.3766 72.8246 41.3766C72.6648 41.3766 72.5813 41.2859 72.5813 41.1007C72.5813 41.0572 72.5813 41.0245 72.5886 40.9991L72.8536 39.1733H71.9025L71.6412 40.941C71.623 41.0935 71.6122 41.2024 71.6122 41.2641C71.6122 41.3948 71.6376 41.5291 71.6848 41.6634C71.7319 41.8013 71.8154 41.9138 71.9389 42.0082C72.0586 42.1026 72.222 42.1498 72.4289 42.1498C72.5342 42.1498 72.6358 42.1353 72.7374 42.1099C72.8391 42.0808 72.9226 42.0518 72.9915 42.0155C73.0605 41.9792 73.1331 41.9356 73.213 41.8812C73.2928 41.8267 73.3509 41.7832 73.3908 41.7578L73.3436 42.099H74.2983L74.7339 39.1733H73.772H73.7683ZM71.2818 39.2023C71.1983 39.1478 71.104 39.1224 70.9951 39.1224C70.7882 39.1224 70.5559 39.2785 70.2945 39.5943L70.3562 39.1733H69.4088L68.9732 42.099H69.9206L70.1674 40.4256C70.3235 40.157 70.4978 40.019 70.6865 40.019C70.7845 40.019 70.8644 40.0517 70.9297 40.1134C70.9914 40.1751 71.0495 40.255 71.104 40.3421L71.5541 39.4165C71.4597 39.3221 71.3726 39.2495 71.2891 39.195M67.6664 39.166L67.4087 40.941C67.2454 41.0971 67.1147 41.206 67.0167 41.2713C66.9223 41.3367 66.8243 41.3694 66.7227 41.3694C66.5629 41.3694 66.4795 41.2786 66.4795 41.0935C66.4795 41.0499 66.4795 41.0173 66.4867 40.9918L66.7517 39.166H65.8007L65.5393 40.9338C65.5212 41.0862 65.5103 41.1951 65.5103 41.2568C65.5103 41.3875 65.5357 41.5218 65.5829 41.6561C65.6301 41.7941 65.7135 41.9066 65.837 42.001C65.9567 42.0953 66.1201 42.1425 66.327 42.1425C66.4323 42.1425 66.5339 42.128 66.6355 42.1026C66.7372 42.0736 66.8207 42.0445 66.8896 42.0082C66.9586 41.9719 67.0312 41.9284 67.1111 41.8739C67.1909 41.8195 67.249 41.7759 67.2889 41.7505L67.2417 42.0917H68.1964L68.632 39.166H67.6701H67.6664ZM64.915 39.6052C64.8714 39.4709 64.7879 39.3584 64.6645 39.2604C64.5411 39.1624 64.3741 39.1152 64.1563 39.1152C63.9748 39.1152 63.8151 39.1478 63.6772 39.2132C63.5356 39.2785 63.3795 39.3765 63.2016 39.5072L63.4085 38.1061H62.4611L61.8658 42.0917H62.8278L63.0855 40.3276C63.2416 40.1787 63.3686 40.0698 63.4703 40.0009C63.5719 39.9319 63.6699 39.8956 63.7643 39.8956C63.8478 39.8956 63.9095 39.9283 63.9494 39.9936C63.9893 40.059 64.0111 40.1352 64.0111 40.2187C64.0111 40.2368 64.0111 40.2586 64.0038 40.2913L63.7352 42.0953H64.6935L64.9404 40.4147C64.9694 40.2368 64.9839 40.0953 64.9839 39.9864C64.9839 39.8666 64.9621 39.7395 64.915 39.6052ZM61.1181 39.1841C60.9765 39.137 60.8095 39.1152 60.6208 39.1152C60.2614 39.1152 59.9855 39.2059 59.7968 39.3838C59.608 39.5617 59.5136 39.7686 59.5136 40.0009C59.5136 40.1679 59.5681 40.3203 59.677 40.4582C59.7859 40.5926 59.9202 40.7232 60.0799 40.8466C60.2578 40.9773 60.3739 41.0681 60.4356 41.1225C60.4973 41.177 60.5264 41.235 60.5264 41.2895C60.5264 41.3367 60.5046 41.3766 60.4611 41.4129C60.4175 41.4492 60.3558 41.4674 60.2796 41.4674C60.1489 41.4674 60.0255 41.4492 59.9129 41.4093C59.7968 41.3694 59.6334 41.3076 59.4229 41.2205L59.2995 41.8921C59.4955 41.9937 59.6842 42.0627 59.8657 42.099C60.0472 42.1353 60.1852 42.1534 60.2832 42.1534C60.53 42.1534 60.7406 42.1062 60.9112 42.0155C61.0818 41.9211 61.2088 41.8049 61.2959 41.6597C61.3794 41.5145 61.423 41.3694 61.423 41.2278C61.423 41.1153 61.3903 40.9955 61.325 40.8648C61.2596 40.7377 61.129 40.5926 60.9366 40.4292C60.864 40.3675 60.7805 40.3058 60.6897 40.2404C60.599 40.1751 60.5336 40.1243 60.4937 40.0807C60.4538 40.0372 60.4356 39.99 60.4356 39.9392C60.4356 39.8484 60.501 39.8049 60.6317 39.8049C60.7297 39.8049 60.8676 39.8339 61.0382 39.892C61.2088 39.9501 61.3649 40.0154 61.5065 40.0844L61.5791 39.3947C61.4193 39.3076 61.2705 39.2422 61.129 39.195M58.1524 38.1169L57.8039 40.4038C57.7676 40.618 57.7059 40.7849 57.6079 40.912C57.5136 41.039 57.3974 41.1261 57.2631 41.1806C57.1288 41.235 56.9763 41.2605 56.8093 41.2605C56.4754 41.2605 56.2467 41.1879 56.1233 41.0427C55.9999 40.8975 55.9382 40.716 55.9382 40.5018C55.9382 40.4038 55.9454 40.3022 55.9636 40.2005L56.2685 38.1206H55.2557L54.9581 40.0989C54.9218 40.3239 54.9036 40.52 54.9036 40.6906C54.9036 40.8975 54.9617 41.1116 55.0742 41.3367C55.1868 41.5617 55.3864 41.7541 55.6732 41.9138C55.96 42.0736 56.3411 42.157 56.8166 42.157C57.176 42.157 57.4954 42.099 57.7785 41.9792C58.0617 41.863 58.2904 41.6815 58.4682 41.442C58.6461 41.2024 58.7622 40.9047 58.8131 40.5526L59.1652 38.1169H58.1524ZM50.6566 40.3711C50.7256 40.1933 50.7982 40.0517 50.8781 39.9428C50.9579 39.8339 51.0668 39.7794 51.2048 39.7794C51.4334 39.7794 51.546 39.9428 51.546 40.2731C51.546 40.2985 51.546 40.3167 51.546 40.3276C51.546 40.3385 51.546 40.353 51.546 40.3675H50.6566V40.3711ZM52.301 39.7177C52.1885 39.5181 52.036 39.3656 51.8472 39.2676C51.6585 39.1696 51.4516 39.1224 51.2229 39.1224C50.918 39.1224 50.6457 39.1987 50.4025 39.3475C50.1593 39.4963 49.9706 39.6996 49.8326 39.9573C49.6947 40.2114 49.6257 40.4909 49.6257 40.7922C49.6257 40.9918 49.6657 41.1951 49.7492 41.402C49.8326 41.6089 49.9851 41.7832 50.2138 41.932C50.4425 42.0808 50.7546 42.1534 51.1539 42.1534C51.3427 42.1534 51.4988 42.1389 51.6222 42.1099C51.7456 42.0808 51.909 42.0264 52.1159 41.9429L52.2611 41.2242C52.0433 41.3113 51.8581 41.3802 51.7021 41.4238C51.546 41.471 51.3681 41.4928 51.1721 41.4928C50.7764 41.4928 50.5768 41.2895 50.5768 40.8866H52.428C52.4534 40.7377 52.468 40.5962 52.468 40.4582C52.468 40.1642 52.4099 39.9174 52.2974 39.7177M48.1375 40.9011C48.0867 41.0427 47.9995 41.1588 47.8798 41.2496C47.76 41.3439 47.6002 41.3875 47.4042 41.3875C47.3244 41.3875 47.2481 41.3766 47.1755 41.3585L47.4079 39.8339C47.4732 39.8157 47.5422 39.8085 47.622 39.8085C47.8326 39.8085 47.985 39.8702 48.0758 39.9936C48.1665 40.117 48.2137 40.2767 48.2137 40.4691C48.2137 40.6143 48.1883 40.7559 48.1375 40.8975M49.1321 39.9537C49.0776 39.7903 48.9978 39.6488 48.8889 39.5217C48.78 39.3947 48.6457 39.2967 48.4823 39.2277C48.319 39.1587 48.1302 39.1224 47.916 39.1224C47.8471 39.1224 47.7781 39.1297 47.7091 39.1406C47.6402 39.1478 47.5712 39.1587 47.5095 39.1769L47.5857 38.6578H46.6383L46.475 39.7359C46.2935 39.8992 46.1628 40.0372 46.0757 40.1461C45.9886 40.255 45.9123 40.3784 45.8434 40.5163C45.7744 40.6543 45.7381 40.7668 45.7381 40.8575C45.7381 40.9338 45.7671 40.9701 45.8288 40.9701C45.8543 40.9701 45.876 40.9628 45.8942 40.9483C45.9123 40.9338 45.9414 40.9047 45.9777 40.8648L46.377 40.3893L45.916 43.4348H46.8706L47.0848 42.059C47.1792 42.0881 47.2663 42.1135 47.3462 42.1316C47.426 42.1498 47.5168 42.157 47.6111 42.157C47.9306 42.157 48.2101 42.0808 48.4569 41.932C48.7037 41.7832 48.8925 41.5799 49.0232 41.3222C49.1539 41.0681 49.2192 40.7886 49.2192 40.4873C49.2192 40.2985 49.1938 40.1207 49.1393 39.9609M44.5802 39.1805L44.1627 42.1062H45.1355L45.553 39.1805H44.5802ZM45.5457 38.2912C45.5058 38.2222 45.4513 38.1678 45.3824 38.1278C45.3134 38.0879 45.2408 38.0661 45.1646 38.0661C45.0448 38.0661 44.9395 38.1097 44.8524 38.1968C44.7653 38.2839 44.7217 38.3892 44.7217 38.509C44.7217 38.6288 44.7653 38.7304 44.8524 38.8175C44.9395 38.9046 45.0448 38.9482 45.1646 38.9482C45.2844 38.9482 45.3933 38.9046 45.4767 38.8175C45.5639 38.7304 45.6074 38.6288 45.6074 38.5053C45.6074 38.4291 45.5856 38.3565 45.5457 38.2876M42.9213 38.1169L42.3332 42.1026H43.3061L43.8941 38.1169H42.9213ZM40.9648 39.1733L40.707 40.9483C40.5437 41.1044 40.413 41.2133 40.315 41.2786C40.2206 41.3439 40.1226 41.3766 40.021 41.3766C39.8613 41.3766 39.7778 41.2859 39.7778 41.1007C39.7778 41.0572 39.7778 41.0245 39.785 40.9991L40.05 39.1733H39.099L38.8376 40.941C38.8195 41.0935 38.8086 41.2024 38.8086 41.2641C38.8086 41.3948 38.834 41.5291 38.8812 41.6634C38.9284 41.8013 39.0119 41.9138 39.1353 42.0082C39.2551 42.1026 39.4184 42.1498 39.6253 42.1498C39.7306 42.1498 39.8322 42.1353 39.9339 42.1099C40.0355 42.0808 40.119 42.0518 40.188 42.0155C40.2569 41.9792 40.3295 41.9356 40.4094 41.8812C40.4892 41.8267 40.5473 41.7832 40.5872 41.7578L40.5401 42.099H41.4947L41.9303 39.1733H40.9684H40.9648ZM35.2694 38.1169L35.146 38.9264H36.4274L35.9591 42.099H36.9718L37.4474 38.9264H38.736L38.8521 38.1169H35.2658H35.2694Z" fill="#ED1C24"/>
</g>
<defs>
<clipPath id="clip0_1150_29853">
<rect width="144.053" height="43" fill="white" transform="translate(0.179199 0.5)"/>
</clipPath>
</defs>
</svg>
