<svg width="328" height="332" viewBox="0 0 328 332" fill="none" xmlns="http://www.w3.org/2000/svg">
<path d="M164.547 0.13623C157.595 0.13623 150.712 0.615148 144 1.47036C162.938 6.5332 182.663 13.7854 199.854 24.4584C255.126 58.53 251.496 93.7646 276.735 99.8195C302.042 105.874 292.453 114.358 289.988 149.627C289.166 161.839 267.215 150.858 259.955 150.858C252.695 150.858 244.339 165.431 255.126 172.718C265.982 180.004 291.221 170.323 286.392 189.753C281.598 209.15 262.386 237.166 248.003 217.667C233.586 198.237 220.264 202.513 209.511 193.448C186.738 173.949 193.93 161.839 184.307 145.967C178.28 136.149 177.492 130.573 177.629 127.734C175.232 137.893 167.595 177.917 191.532 204.258C219.168 234.669 256.393 252.902 255.16 295.526C255.126 298.194 255.023 300.725 254.989 303.052C299.028 273.461 328 222.833 328 165.363C327.966 74.1632 254.749 0.13623 164.547 0.13623Z" fill="white"/>
<path d="M111.694 106.56C111.694 106.56 77.8759 123.68 45.1604 176.243C45.1604 176.243 29.4749 76.0332 144.375 21.0639C144.375 21.0639 118.348 2.80958 68.4301 30.3458C26.9928 60.4603 0 109.654 0 165.242C0 205.429 14.1342 242.351 37.6797 271.056C37.0591 260.467 36.6799 246.545 37.8865 233.619C40.3686 207.939 48.8491 181.125 111.694 106.56ZM155.269 183.531C155.269 183.531 143.203 183.531 137.17 226.296C131.827 263.768 125.587 289.997 94.7335 315.677C107.351 321.659 120.83 326.059 134.93 328.603C148.857 314.921 167.576 288.932 161.302 253.145C151.649 198.21 155.269 183.531 155.269 183.531ZM174.471 331.044C189.432 330.081 203.911 327.159 217.563 322.381C203.084 307.805 183.434 284.428 178.229 260.467L174.471 331.044ZM123.829 159.123C139.515 124.918 144.375 118.833 144.375 118.833C144.375 118.833 109.247 132.24 102.076 184.734C95.4574 232.656 79.703 263.218 48.5388 283.122C55.468 290.032 63.0178 296.323 71.0156 301.926C86.1151 289.551 107.385 269.68 114.142 250.704C125.036 220.143 108.109 193.329 123.829 159.158M183.055 68.7452C183.055 68.7452 202.463 66.2701 212.116 66.2701C221.769 66.2701 225.388 71.186 226.698 78.5428C227.836 85.8307 225.388 100.51 225.388 100.51C225.388 100.51 226.698 82.1867 207.221 77.3052C190.674 73.1111 173.402 76.0676 183.055 68.7796" fill="white"/>
</svg>
