<svg width="25" height="24" viewBox="0 0 25 24" fill="none" xmlns="http://www.w3.org/2000/svg">
<g clip-path="url(#clip0_1276_186)">
<path d="M22.8777 0H2.42617C1.44648 0 0.654297 0.773438 0.654297 1.72969V22.2656C0.654297 23.2219 1.44648 24 2.42617 24H22.8777C23.8574 24 24.6543 23.2219 24.6543 22.2703V1.72969C24.6543 0.773438 23.8574 0 22.8777 0ZM7.77461 20.4516H4.21211V8.99531H7.77461V20.4516ZM5.99336 7.43438C4.84961 7.43438 3.92617 6.51094 3.92617 5.37187C3.92617 4.23281 4.84961 3.30937 5.99336 3.30937C7.13242 3.30937 8.05586 4.23281 8.05586 5.37187C8.05586 6.50625 7.13242 7.43438 5.99336 7.43438ZM21.1059 20.4516H17.548V14.8828C17.548 13.5562 17.5246 11.8453 15.6965 11.8453C13.8449 11.8453 13.5637 13.2937 13.5637 14.7891V20.4516H10.0105V8.99531H13.423V10.5609H13.4699C13.9434 9.66094 15.1059 8.70938 16.8355 8.70938C20.4402 8.70938 21.1059 11.0813 21.1059 14.1656V20.4516Z" fill="#98A2B3"/>
</g>
<defs>
<clipPath id="clip0_1276_186">
<rect width="24" height="24" fill="white" transform="translate(0.654297)"/>
</clipPath>
</defs>
</svg>
