<svg width="25" height="20" viewBox="0 0 25 20" fill="none" xmlns="http://www.w3.org/2000/svg">
<path d="M8.20445 19.7502C17.2588 19.7502 22.2126 12.2469 22.2126 5.74211C22.2126 5.53117 22.2079 5.31554 22.1985 5.1046C23.1622 4.40771 23.9938 3.5445 24.6543 2.55554C23.7568 2.95484 22.8039 3.21563 21.8282 3.32898C22.8556 2.71315 23.6248 1.74572 23.9934 0.606011C23.0268 1.1788 21.9699 1.58286 20.8677 1.80085C20.1251 1.01181 19.1433 0.48936 18.074 0.314295C17.0047 0.13923 15.9075 0.321295 14.952 0.832341C13.9966 1.34339 13.2361 2.15495 12.7881 3.14156C12.3402 4.12816 12.2297 5.23486 12.4738 6.29054C10.5168 6.19233 8.60223 5.68395 6.85428 4.79834C5.10632 3.91274 3.56399 2.66968 2.32727 1.14976C1.6987 2.23349 1.50635 3.51589 1.78933 4.73634C2.0723 5.95678 2.80936 7.02369 3.8507 7.72023C3.06892 7.69541 2.30427 7.48492 1.61992 7.10617V7.1671C1.61922 8.30439 2.01239 9.40683 2.73261 10.287C3.45282 11.1672 4.45562 11.7708 5.57055 11.9952C4.84635 12.1934 4.08628 12.2222 3.34914 12.0796C3.66375 13.0577 4.27587 13.9131 5.10007 14.5266C5.92427 15.14 6.91942 15.4808 7.94664 15.5015C6.20272 16.8714 4.04847 17.6144 1.83086 17.6109C1.43758 17.6103 1.0447 17.5861 0.654297 17.5387C2.90715 18.984 5.52783 19.7516 8.20445 19.7502Z" fill="#98A2B3"/>
</svg>
